<svg width="30" height="29" viewBox="0 0 30 29" fill="none" xmlns="http://www.w3.org/2000/svg">
<g clip-path="url(#clip0)">
<path d="M7.39132 2.24049C7.64881 3.30391 9.03126 3.72304 9.90902 3.00398C10.0573 2.88243 10.2796 3.03304 10.2015 3.20222C9.73988 4.20369 10.5943 5.30128 11.7575 5.2011C11.9541 5.18422 12.039 5.42775 11.8692 5.52196C10.8651 6.07909 10.8651 7.43581 11.8692 7.99272C12.039 8.08693 11.9541 8.33046 11.7575 8.31358C10.5943 8.21339 9.73988 9.31099 10.2015 10.3125C10.2796 10.4819 10.0573 10.6322 9.90902 10.5107C9.03126 9.79164 7.64859 10.211 7.39132 11.2742C7.34784 11.4541 7.07341 11.4541 7.02992 11.2742C6.77266 10.2108 5.39021 9.79164 4.51222 10.5107C4.3639 10.6322 4.14166 10.4819 4.21971 10.3125C4.68136 9.31099 3.82695 8.21339 2.66377 8.31358C2.46716 8.33046 2.38224 8.08693 2.55207 7.99272C3.55618 7.43581 3.55618 6.07909 2.55207 5.52196C2.38247 5.42775 2.46716 5.18422 2.66377 5.2011C3.82695 5.30128 4.68136 4.20369 4.21971 3.20222C4.14166 3.03304 4.3639 2.88243 4.51222 3.00398C5.39021 3.72304 6.77266 3.30391 7.02992 2.24049C7.07341 2.06062 7.34784 2.06062 7.39132 2.24049Z" fill="#FD8F31"/>
<path d="M11.8692 7.99272C10.8651 7.43581 10.8651 6.07909 11.8692 5.52196C12.039 5.42796 11.9541 5.18422 11.7575 5.20131C10.5945 5.3015 9.7401 4.20369 10.2015 3.20222C10.2796 3.03304 10.0576 2.88243 9.90902 3.00398C9.03125 3.72325 7.64881 3.30391 7.39131 2.24049C7.34783 2.06062 7.0734 2.06062 7.02991 2.24049C6.93469 2.63377 6.68567 2.9384 6.36523 3.13066C7.50186 3.98323 8.22994 5.2906 8.22994 6.75755C8.22994 8.22429 7.50186 9.53187 6.36523 10.3844C6.68567 10.5765 6.93469 10.8813 7.02991 11.2744C7.0734 11.4543 7.34805 11.4543 7.39131 11.2744C7.64881 10.211 9.03125 9.79185 9.90902 10.5109C10.0576 10.6325 10.2796 10.4821 10.2015 10.3127C9.7401 9.3112 10.5945 8.21361 11.7575 8.3138C11.9541 8.33067 12.039 8.08693 11.8692 7.99272Z" fill="#FF7F1F"/>
<path d="M9.25392 6.75735C9.25392 7.81073 8.33908 8.66437 7.21046 8.66437C6.08208 8.66437 5.16724 7.81073 5.16724 6.75735C5.16724 5.70419 6.08208 4.85034 7.21046 4.85034C8.33908 4.85034 9.25392 5.70419 9.25392 6.75735Z" fill="#FCCF3F"/>
<path d="M22.032 17.3793V3.53268C22.032 1.65515 20.4012 0.133301 18.3898 0.133301C16.3782 0.133301 14.7476 1.65515 14.7476 3.53268V17.3793C13.118 18.4493 12.0532 20.2181 12.0532 22.2191C12.0532 25.4854 14.8902 28.1333 18.3898 28.1333C21.8894 28.1333 24.7264 25.4854 24.7264 22.2191C24.7264 20.2181 23.6614 18.4493 22.032 17.3793Z" fill="#D8D8D8"/>
<path d="M18.3896 26.1964C15.9765 26.1964 14.0134 24.364 14.0134 22.1119C14.0134 20.4017 15.1521 18.879 16.8607 18.2849V3.53271C16.8607 2.74573 17.5464 2.10571 18.3896 2.10571C19.2326 2.10571 19.9186 2.74573 19.9186 3.53271V18.2849C21.627 18.8788 22.7659 20.4015 22.7659 22.1117C22.7659 24.364 20.8027 26.1964 18.3896 26.1964Z" fill="#F3E8D7"/>
<path d="M16.8607 6.14185V18.2848C15.1521 18.8787 14.0134 20.4014 14.0134 22.1117C14.0134 24.3639 15.9765 26.1961 18.3896 26.1961C20.8027 26.1961 22.7659 24.3639 22.7659 22.1117C22.7659 20.4014 21.627 18.8787 19.9186 18.2848V6.14185H16.8607Z" fill="#FC4E51"/>
<path d="M27.0765 9.98889H24.45C24.1999 9.98889 23.9973 9.79962 23.9973 9.56635C23.9973 9.33307 24.1999 9.1438 24.45 9.1438H27.0765C27.3264 9.1438 27.5292 9.33307 27.5292 9.56635C27.5292 9.79962 27.3264 9.98889 27.0765 9.98889Z" fill="#0D6E9A"/>
<path d="M25.6425 6.56433H24.45C24.1999 6.56433 23.9973 6.37506 23.9973 6.14178C23.9973 5.90851 24.1999 5.71924 24.45 5.71924H25.6425C25.8925 5.71924 26.0952 5.90851 26.0952 6.14178C26.0952 6.37506 25.8925 6.56433 25.6425 6.56433Z" fill="#0D6E9A"/>
<path d="M26.065 3.13977H24.45C24.1999 3.13977 23.9973 2.9505 23.9973 2.71722C23.9973 2.48395 24.1999 2.29468 24.45 2.29468H26.065C26.3152 2.29468 26.5178 2.48395 26.5178 2.71722C26.5178 2.9505 26.3152 3.13977 26.065 3.13977Z" fill="#0D6E9A"/>
<path d="M26.065 16.8381H24.45C24.1999 16.8381 23.9973 16.6489 23.9973 16.4156C23.9973 16.1821 24.1999 15.993 24.45 15.993H26.065C26.3152 15.993 26.5178 16.1821 26.5178 16.4156C26.5178 16.6489 26.3152 16.8381 26.065 16.8381Z" fill="#0D6E9A"/>
<path d="M25.6425 13.4136H24.45C24.1999 13.4136 23.9973 13.2243 23.9973 12.991C23.9973 12.7578 24.1999 12.5685 24.45 12.5685H25.6425C25.8925 12.5685 26.0952 12.7578 26.0952 12.991C26.0952 13.2243 25.8925 13.4136 25.6425 13.4136Z" fill="#0D6E9A"/>
<path d="M19.9187 18.2848V6.14185H16.8608V18.2848C16.8608 18.2848 18.9745 19.2002 18.9745 22.1117C18.9745 23.7305 17.9603 25.1323 16.4939 25.7928C17.0677 26.0513 17.7109 26.1961 18.3895 26.1961C20.8026 26.1961 22.7659 24.3639 22.7659 22.1117C22.7659 20.4014 21.627 18.8789 19.9187 18.2848Z" fill="#E5394B"/>
</g>
<defs>
<clipPath id="clip0">
<rect width="30" height="28" fill="white" transform="translate(0 0.133301)"/>
</clipPath>
</defs>
</svg>
