<svg id="Capa_1" enable-background="new 0 0 512 512" height="512" viewBox="0 0 512 512" width="512" xmlns="http://www.w3.org/2000/svg"><g><g><path clip-rule="evenodd" d="m424.474 276.707c0 13.946-11.31 25.256-25.228 25.256-13.946 0-25.228-11.31-25.228-25.256 0-13.918 11.282-25.228 25.228-25.228 13.918 0 25.228 11.31 25.228 25.228zm-64.317-75.344h-128.123v244.313h29.848 48.5 113.27 48.471 29.877v-194.084c0-27.637-22.62-50.229-50.229-50.229zm-57.032 50.116c13.918 0 25.228 11.31 25.228 25.228 0 13.946-11.31 25.256-25.228 25.256-13.946 0-25.228-11.31-25.228-25.256 0-13.918 11.282-25.228 25.228-25.228z" fill="#fff3da" fill-rule="evenodd"/></g><g><path clip-rule="evenodd" d="m232.034 147.931h-222.034v297.745h26.248 48.472 72.566 48.5 26.248v-244.313zm-85.974 102.754c10.176-6.038 22.507-9.184 36.084-8.532 1.644 17.603-3.26 33.363-12.699 45.268 4.082-.539 8.334-.737 12.699-.51 3.43 36.85-21.855 65.791-57.514 67.662-1.077.057-2.154.085-3.203.085h-.425-.397c-37.558-.17-64.232-30.33-60.717-67.747 4.365-.227 8.617-.028 12.699.51-9.439-11.905-14.343-27.666-12.699-45.268 13.549-.652 25.88 2.494 36.084 8.532-1.701-20.863 6.633-42.235 25.029-58.194 18.398 15.959 26.76 37.332 25.059 58.194z" fill="#9da5be" fill-rule="evenodd"/></g><g><path clip-rule="evenodd" d="m399.246 251.479c-13.946 0-25.228 11.31-25.228 25.228 0 13.946 11.282 25.256 25.228 25.256 13.918 0 25.228-11.31 25.228-25.256 0-13.918-11.31-25.228-25.228-25.228z" fill="#b7eabc" fill-rule="evenodd"/></g><g><path clip-rule="evenodd" d="m303.125 251.479c-13.946 0-25.228 11.31-25.228 25.228 0 13.946 11.282 25.256 25.228 25.256 13.918 0 25.228-11.31 25.228-25.256 0-13.918-11.31-25.228-25.228-25.228z" fill="#b7eabc" fill-rule="evenodd"/></g><g><path clip-rule="evenodd" d="m376.002 153.005c-8.731 0-15.845 7.115-15.845 15.845v32.513h91.614v-32.513c0-8.731-7.143-15.845-15.845-15.845h-29.962z" fill="#b7eabc" fill-rule="evenodd"/></g><g><path clip-rule="evenodd" d="m232.034 128.401c0-36.566-55.501-54.849-111.031-54.849-55.417 0-110.861 18.254-111.003 54.707v.142 19.53h222.034z" fill="#e7e9ef" fill-rule="evenodd"/></g><g><path clip-rule="evenodd" d="m121.003 192.491c-18.396 15.959-26.73 37.332-25.029 58.194 11.508 6.803 20.296 17.291 25.029 30.075 4.734-12.784 13.521-23.272 25.058-30.075 1.7-20.862-6.662-42.235-25.058-58.194z" fill="#ffda8f" fill-rule="evenodd"/></g><g><path clip-rule="evenodd" d="m95.973 250.685c-10.205-6.038-22.535-9.184-36.084-8.532-1.644 17.603 3.26 33.363 12.699 45.268 22.932 3.09 40.846 17.631 48.415 38.097v-44.758c-4.734-12.784-13.521-23.272-25.03-30.075z" fill="#ffda8f" fill-rule="evenodd"/></g><g><path clip-rule="evenodd" d="m146.06 250.685c-11.537 6.803-20.324 17.291-25.058 30.075v44.758c7.568-20.466 25.511-35.007 48.443-38.097 9.439-11.905 14.343-27.666 12.699-45.268-13.577-.652-25.907 2.494-36.084 8.532z" fill="#ffda8f" fill-rule="evenodd"/></g><g><path clip-rule="evenodd" d="m169.446 287.421c-22.932 3.09-40.875 17.631-48.443 38.097v29.14h.425c1.049 0 2.126-.028 3.203-.085 35.659-1.871 60.944-30.812 57.514-67.662-4.366-.227-8.617-.028-12.699.51z" fill="#ffda8f" fill-rule="evenodd"/></g><g><path clip-rule="evenodd" d="m121.003 325.518c-7.568-20.466-25.483-35.007-48.415-38.097-4.082-.539-8.334-.737-12.699-.51-3.515 37.417 23.159 67.577 60.717 67.747h.397z" fill="#ffda8f" fill-rule="evenodd"/></g><g><path clip-rule="evenodd" d="m84.72 445.677h-48.472v44.616c0 6.435 5.272 11.707 11.679 11.707h25.114c6.435 0 11.679-5.272 11.679-11.707z" fill="#e7e9ef" fill-rule="evenodd"/></g><g><path clip-rule="evenodd" d="m205.785 445.677h-48.5v44.616c0 6.435 5.272 11.707 11.707 11.707h25.086c6.435 0 11.707-5.272 11.707-11.707z" fill="#e7e9ef" fill-rule="evenodd"/></g><g><path clip-rule="evenodd" d="m310.382 445.677h-48.5v44.616c0 6.435 5.272 11.707 11.707 11.707h25.086c6.435 0 11.707-5.272 11.707-11.707z" fill="#e7e9ef" fill-rule="evenodd"/></g><g><path clip-rule="evenodd" d="m423.652 445.677v44.616c0 6.435 5.244 11.707 11.678 11.707h25.115c6.435 0 11.678-5.272 11.678-11.707v-44.616z" fill="#e7e9ef" fill-rule="evenodd"/></g><g><path d="m303.125 311.963c19.425 0 35.228-15.815 35.228-35.256 0-19.425-15.803-35.229-35.228-35.229-19.424 0-35.228 15.804-35.228 35.229 0 19.44 15.804 35.256 35.228 35.256zm0-50.484c8.397 0 15.228 6.831 15.228 15.229 0 8.412-6.831 15.256-15.228 15.256-8.396 0-15.228-6.844-15.228-15.256 0-8.398 6.832-15.229 15.228-15.229z"/><path d="m399.246 241.479c-19.425 0-35.228 15.804-35.228 35.229 0 19.44 15.803 35.256 35.228 35.256s35.228-15.815 35.228-35.256c0-19.426-15.803-35.229-35.228-35.229zm0 50.484c-8.397 0-15.228-6.844-15.228-15.256 0-8.397 6.831-15.229 15.228-15.229s15.228 6.831 15.228 15.229c0 8.412-6.831 15.256-15.228 15.256z"/><path d="m405 342.078h-127.103c-5.523 0-10 4.478-10 10s4.477 10 10 10h127.103c5.523 0 10-4.478 10-10s-4.477-10-10-10z"/><path d="m405 382.783h-127.103c-5.523 0-10 4.478-10 10s4.477 10 10 10h127.103c5.523 0 10-4.478 10-10s-4.477-10-10-10z"/><path d="m127.555 184.938c-3.76-3.262-9.346-3.262-13.105 0-15.767 13.678-25.542 31.552-28.049 50.62-8.398-2.65-17.502-3.848-26.992-3.392-4.974.239-9.014 4.101-9.477 9.059-1.21 12.958.738 25.534 5.524 36.733-3.024 1.499-5.19 4.474-5.523 8.019-1.986 21.143 4.335 40.967 17.799 55.821 11.206 12.364 26.327 20.054 43.271 22.215v16.016c0 5.522 4.477 10 10 10s10-4.478 10-10v-16.016c17.599-2.26 33.223-10.439 44.452-23.429 12.65-14.636 18.562-34.025 16.647-54.598-.33-3.548-2.498-6.527-5.524-8.028 4.786-11.199 6.734-23.776 5.523-36.733-.463-4.958-4.503-8.819-9.477-9.059-9.492-.456-18.596.743-26.995 3.394-2.511-19.06-12.295-36.935-28.074-50.622zm-16.553 158.851c-11.175-1.967-21.059-7.267-28.452-15.423-7.678-8.472-12.104-19.316-12.857-31.195 18.812 2.061 34.373 13.259 41.31 30.223v16.395zm0-49.838c-9.118-7.876-20.329-13.296-32.744-15.707-5.026-7.456-7.956-16.331-8.56-25.823 18.841 2.08 34.388 13.314 41.304 30.293zm10.009-33.993c-4.285-5.755-9.425-10.739-15.234-14.838.074-13.934 5.431-27.474 15.226-38.585 9.809 11.118 15.176 24.66 15.253 38.586-5.811 4.098-10.954 9.082-15.245 14.837zm39.312 67.545c-7.429 8.596-17.671 14.234-29.32 16.287v-16.39c6.959-16.967 22.527-28.166 41.336-30.229-.724 11.512-4.857 22.049-12.016 30.332zm3.454-49.26c-12.424 2.413-23.646 7.844-32.774 15.732v-11.334c6.951-16.946 22.518-28.141 41.333-30.219-.605 9.491-3.534 18.365-8.559 25.821z"/><path d="m461.771 192.209v-23.358c0-14.251-11.594-25.846-25.845-25.846h-19.962v-115.147c0-15.361-12.497-27.858-27.858-27.858h-249.246c-15.361 0-27.858 12.497-27.858 27.858v35.892c-26.64 1.006-51.32 6.008-70.331 14.357-33.615 14.763-40.671 35.498-40.671 50.293v317.276c0 5.522 4.477 10 10 10h16.249v34.616c0 11.97 9.725 21.707 21.678 21.707h25.115c11.954 0 21.678-9.737 21.678-21.707v-34.616h52.565v34.616c0 11.97 9.738 21.707 21.707 21.707h25.086c11.969 0 21.707-9.737 21.707-21.707v-34.616h16.249 19.848v34.616c0 11.97 9.738 21.707 21.707 21.707h25.086c11.969 0 21.707-9.737 21.707-21.707v-34.616h93.27v34.616c0 11.97 9.725 21.707 21.679 21.707h25.114c11.954 0 21.679-9.737 21.679-21.707v-34.616h19.876c5.523 0 10-4.478 10-10v-194.084c0-29.802-21.763-54.604-50.229-59.383zm-25.845-29.204c3.168 0 5.845 2.677 5.845 5.846v22.513h-71.614v-22.513c0-3.224 2.622-5.846 5.845-5.846zm-361.206 327.288c0 .926-.769 1.707-1.678 1.707h-25.115c-.894 0-1.678-.798-1.678-1.707v-34.616h28.471zm121.065 0c0 .909-.798 1.707-1.707 1.707h-25.086c-.909 0-1.707-.798-1.707-1.707v-34.616h28.5zm26.249-352.361h-56.16c-5.523 0-10 4.478-10 10s4.477 10 10 10h56.16v43.432 234.313h-202.034v-277.745h56.046c5.523 0 10-4.478 10-10s-4.477-10-10-10h-56.046v-9.532c0-29.131 52.046-44.849 101.017-44.849s101.017 15.718 101.017 44.849zm-20.672-59.825c-19.017-8.352-43.708-13.354-70.359-14.358v-35.891c0-4.333 3.525-7.858 7.858-7.858h249.246c4.333 0 7.858 3.525 7.858 7.858v115.146h-19.961c-14.251 0-25.845 11.595-25.845 25.846v22.513h-108.125v-62.963c0-14.795-7.056-35.53-40.672-50.293zm99.02 412.186c0 .909-.798 1.707-1.707 1.707h-25.086c-.909 0-1.707-.798-1.707-1.707v-34.616h28.5zm161.742 0c0 .926-.769 1.707-1.679 1.707h-25.114c-.91 0-1.679-.781-1.679-1.707v-34.616h28.472zm29.876-54.616h-249.966v-224.314h209.737c22.182 0 40.229 18.047 40.229 40.229z"/><path d="m120.974 157.932h.028c5.523 0 9.986-4.478 9.986-10s-4.491-10-10.014-10-10 4.478-10 10 4.477 10 10 10z"/></g></g></svg>