<svg id="Capa_1" enable-background="new 0 0 512 512" height="512" viewBox="0 0 512 512" width="512" xmlns="http://www.w3.org/2000/svg"><g><path d="m321 15c0-8.284-6.716-15-15-15h-100c-8.284 0-15 6.716-15 15v25h130z"/><path d="m497 482h-6v-145c0-5.682-3.21-10.876-8.292-13.416l-36.708-18.354v176.77h-30v-225c0-5.016-2.506-9.699-6.68-12.48l-90-60c-4.602-3.069-10.521-3.355-15.398-.745s-7.922 7.693-7.922 13.225v285h-30v-285c0-16.627 9.107-31.83 23.767-39.676 6.508-3.483 13.85-5.324 21.232-5.324 8.917 0 17.551 2.614 24.968 7.562l15.033 10.022v-84.584c0-8.284-6.716-15-15-15h-160c-8.284 0-15 6.716-15 15v17h25c24.813 0 45 20.187 45 45v335h-30v-335c0-8.284-6.716-15-15-15h-90c-8.284 0-15 6.716-15 15v200h35c24.813 0 45 20.187 45 45v90h-30v-90c0-8.284-6.716-15-15-15h-80c-8.284 0-15 6.716-15 15v90h-6c-8.284 0-15 6.716-15 15s6.716 15 15 15h482c8.284 0 15-6.716 15-15s-6.716-15-15-15zm-156-175c0-8.284 6.716-15 15-15s15 6.716 15 15v30c0 8.284-6.716 15-15 15s-15-6.716-15-15zm0 90c0-8.284 6.716-15 15-15s15 6.716 15 15v30c0 8.284-6.716 15-15 15s-15-6.716-15-15zm-185-90c0 8.284-6.716 15-15 15s-15-6.716-15-15v-30c0-8.284 6.716-15 15-15s15 6.716 15 15zm0-90c0 8.284-6.716 15-15 15s-15-6.716-15-15v-30c0-8.284 6.716-15 15-15s15 6.716 15 15zm-95 230c0-8.284 6.716-15 15-15s15 6.716 15 15v35h-30z"/></g></svg>