<svg width="30" height="30" viewBox="0 0 30 30" fill="none" xmlns="http://www.w3.org/2000/svg">
<rect width="30" height="30" rx="4" fill="black"/>
<path d="M9.19238 19H7.72754V11.8906H9.19238V19ZM10.5547 19V11.8906H13.0449C13.9076 11.8906 14.5618 12.0566 15.0078 12.3887C15.4538 12.7174 15.6768 13.2008 15.6768 13.8389C15.6768 14.1872 15.5872 14.4948 15.4082 14.7617C15.2292 15.0254 14.9801 15.2191 14.6611 15.3428C15.0257 15.4339 15.3122 15.6178 15.5205 15.8945C15.7321 16.1712 15.8379 16.5098 15.8379 16.9102C15.8379 17.5938 15.6198 18.1113 15.1836 18.4629C14.7474 18.8145 14.1257 18.9935 13.3184 19H10.5547ZM12.0195 15.9043V17.8232H13.2744C13.6195 17.8232 13.888 17.7419 14.0801 17.5791C14.2754 17.4131 14.373 17.1852 14.373 16.8955C14.373 16.2445 14.0361 15.9141 13.3623 15.9043H12.0195ZM12.0195 14.8691H13.1035C13.8424 14.8561 14.2119 14.5615 14.2119 13.9854C14.2119 13.6631 14.1175 13.432 13.9287 13.292C13.7432 13.1488 13.4486 13.0771 13.0449 13.0771H12.0195V14.8691ZM22.3223 11.8906V16.5732C22.3223 17.3512 22.0781 17.9665 21.5898 18.4189C21.1048 18.8714 20.4408 19.0977 19.5977 19.0977C18.7676 19.0977 18.1084 18.8779 17.6201 18.4385C17.1318 17.999 16.8828 17.3952 16.873 16.627V11.8906H18.3379V16.583C18.3379 17.0485 18.4486 17.3887 18.6699 17.6035C18.8945 17.8151 19.2038 17.9209 19.5977 17.9209C20.4212 17.9209 20.8395 17.488 20.8525 16.6221V11.8906H22.3223Z" fill="white"/>
</svg>
