<svg width="30" height="25" viewBox="0 0 30 25" fill="none" xmlns="http://www.w3.org/2000/svg">
<rect x="0.5" y="0.5" width="29" height="24" rx="7.5" fill="white" stroke="#B1C226"/>
<path d="M7.05762 19.3301V21H6.49512V16.7344H8.06836C8.53516 16.7344 8.90039 16.8535 9.16406 17.0918C9.42969 17.3301 9.5625 17.6455 9.5625 18.0381C9.5625 18.4521 9.43262 18.7715 9.17285 18.9961C8.91504 19.2188 8.54492 19.3301 8.0625 19.3301H7.05762ZM7.05762 18.8701H8.06836C8.36914 18.8701 8.59961 18.7998 8.75977 18.6592C8.91992 18.5166 9 18.3115 9 18.0439C9 17.79 8.91992 17.5869 8.75977 17.4346C8.59961 17.2822 8.37988 17.2031 8.10059 17.1973H7.05762V18.8701ZM10.7842 21H10.2422V17.8301H10.7842V21ZM10.1982 16.9893C10.1982 16.9014 10.2246 16.8271 10.2773 16.7666C10.332 16.7061 10.4121 16.6758 10.5176 16.6758C10.623 16.6758 10.7031 16.7061 10.7578 16.7666C10.8125 16.8271 10.8398 16.9014 10.8398 16.9893C10.8398 17.0771 10.8125 17.1504 10.7578 17.209C10.7031 17.2676 10.623 17.2969 10.5176 17.2969C10.4121 17.2969 10.332 17.2676 10.2773 17.209C10.2246 17.1504 10.1982 17.0771 10.1982 16.9893ZM12.2432 21H11.7012V16.5H12.2432V21ZM14.959 20.1592C14.959 20.0127 14.9033 19.8994 14.792 19.8193C14.6826 19.7373 14.4902 19.667 14.2148 19.6084C13.9414 19.5498 13.7236 19.4795 13.5615 19.3975C13.4014 19.3154 13.2822 19.2178 13.2041 19.1045C13.1279 18.9912 13.0898 18.8564 13.0898 18.7002C13.0898 18.4404 13.1992 18.2207 13.418 18.041C13.6387 17.8613 13.9199 17.7715 14.2617 17.7715C14.6211 17.7715 14.9121 17.8643 15.1348 18.0498C15.3594 18.2354 15.4717 18.4727 15.4717 18.7617H14.9268C14.9268 18.6133 14.8633 18.4854 14.7363 18.3779C14.6113 18.2705 14.4531 18.2168 14.2617 18.2168C14.0645 18.2168 13.9102 18.2598 13.7988 18.3457C13.6875 18.4316 13.6318 18.5439 13.6318 18.6826C13.6318 18.8135 13.6836 18.9121 13.7871 18.9785C13.8906 19.0449 14.0771 19.1084 14.3467 19.1689C14.6182 19.2295 14.8379 19.3018 15.0059 19.3857C15.1738 19.4697 15.2979 19.5713 15.3779 19.6904C15.46 19.8076 15.501 19.9512 15.501 20.1211C15.501 20.4043 15.3877 20.6318 15.1611 20.8037C14.9346 20.9736 14.6406 21.0586 14.2793 21.0586C14.0254 21.0586 13.8008 21.0137 13.6055 20.9238C13.4102 20.834 13.2568 20.709 13.1455 20.5488C13.0361 20.3867 12.9814 20.2119 12.9814 20.0244H13.5234C13.5332 20.2061 13.6055 20.3506 13.7402 20.458C13.877 20.5635 14.0566 20.6162 14.2793 20.6162C14.4844 20.6162 14.6484 20.5752 14.7715 20.4932C14.8965 20.4092 14.959 20.2979 14.959 20.1592ZM16.7197 17.8301L16.7373 18.2285C16.9795 17.9238 17.2959 17.7715 17.6865 17.7715C18.3564 17.7715 18.6943 18.1494 18.7002 18.9053V21H18.1582V18.9023C18.1562 18.6738 18.1035 18.5049 18 18.3955C17.8984 18.2861 17.7393 18.2314 17.5225 18.2314C17.3467 18.2314 17.1924 18.2783 17.0596 18.3721C16.9268 18.4658 16.8232 18.5889 16.749 18.7412V21H16.207V17.8301H16.7197ZM20.833 21.0586C20.4033 21.0586 20.0537 20.918 19.7842 20.6367C19.5146 20.3535 19.3799 19.9756 19.3799 19.5029V19.4033C19.3799 19.0889 19.4395 18.8086 19.5586 18.5625C19.6797 18.3145 19.8477 18.1211 20.0625 17.9824C20.2793 17.8418 20.5137 17.7715 20.7656 17.7715C21.1777 17.7715 21.498 17.9072 21.7266 18.1787C21.9551 18.4502 22.0693 18.8389 22.0693 19.3447V19.5703H19.9219C19.9297 19.8828 20.0205 20.1357 20.1943 20.3291C20.3701 20.5205 20.5928 20.6162 20.8623 20.6162C21.0537 20.6162 21.2158 20.5771 21.3486 20.499C21.4814 20.4209 21.5977 20.3174 21.6973 20.1885L22.0283 20.4463C21.7627 20.8545 21.3643 21.0586 20.833 21.0586ZM20.7656 18.2168C20.5469 18.2168 20.3633 18.2969 20.2148 18.457C20.0664 18.6152 19.9746 18.8379 19.9395 19.125H21.5273V19.084C21.5117 18.8086 21.4375 18.5957 21.3047 18.4453C21.1719 18.293 20.9922 18.2168 20.7656 18.2168ZM24.2314 18.3164C24.1494 18.3027 24.0605 18.2959 23.9648 18.2959C23.6094 18.2959 23.3682 18.4473 23.2412 18.75V21H22.6992V17.8301H23.2266L23.2354 18.1963C23.4131 17.9131 23.665 17.7715 23.9912 17.7715C24.0967 17.7715 24.1768 17.7852 24.2314 17.8125V18.3164Z" fill="#B1C226"/>
<g clip-path="url(#clip0)">
<path d="M15.3945 3C15.1686 3 14.9645 3.08805 14.8086 3.22859C14.6301 3.38959 14.5156 3.62016 14.5156 3.87891V4.46484C14.5156 4.62678 14.6467 4.75781 14.8086 4.75781C14.9705 4.75781 15.1016 4.62678 15.1016 4.46484V3.87891C15.1016 3.71727 15.2329 3.58594 15.3945 3.58594C15.5565 3.58594 15.6875 3.4549 15.6875 3.29297C15.6875 3.13104 15.5565 3 15.3945 3Z" fill="#6FBF5F"/>
<path d="M15.1016 4.46484V3.87891C15.1016 3.71727 15.2329 3.58594 15.3945 3.58594C15.5565 3.58594 15.6875 3.4549 15.6875 3.29297C15.6875 3.13104 15.5565 3 15.3945 3C15.1686 3 14.9645 3.08805 14.8086 3.22859V4.75781C14.9705 4.75781 15.1016 4.62678 15.1016 4.46484Z" fill="#53A653"/>
<path d="M15.6149 9.46484H14.8086H13.9994C12.8817 11.5985 13.9163 12.3954 14.4295 12.7786C14.4987 12.8303 14.5608 12.8755 14.6063 12.919C14.6629 12.9731 14.7356 13 14.8086 13C14.8815 13 14.9542 12.9731 15.0108 12.919C15.0563 12.8755 15.1184 12.8303 15.1876 12.7788C15.7003 12.3959 16.735 11.5971 15.6149 9.46484Z" fill="#6FBF5F"/>
<path d="M15.1877 12.7788C15.7003 12.3959 16.7351 11.5971 15.6149 9.46484H14.8086V13C14.8815 13 14.9542 12.9731 15.0109 12.919C15.0564 12.8755 15.1184 12.8303 15.1877 12.7788Z" fill="#53A653"/>
<path d="M16.7249 8.05322L14.1143 9.90717C14.7384 10.7288 15.8221 11.8086 16.8597 11.8086C16.989 11.8086 17.1075 11.7225 17.1424 11.5914C17.4294 10.529 17.5949 9.98735 16.7249 8.05322Z" fill="#91D96C"/>
<path d="M12.9141 7.98425C11.9977 10.0625 12.2098 10.4679 12.4749 11.5914C12.5091 11.7194 12.6252 11.8086 12.7579 11.8086C14.1088 11.8086 15.3005 10.2607 15.9988 9.11292L12.9141 7.98425Z" fill="#B5F279"/>
<path d="M15.6708 7.7963L14.8085 7.79672L13.9485 7.79715C13.586 8.09213 13.3935 8.45633 13.3763 8.88005C13.3385 9.82446 14.2237 10.776 14.6063 11.1414C14.6626 11.1955 14.7356 11.2226 14.8085 11.2226C14.8815 11.2226 14.9544 11.1955 15.0108 11.1414C15.393 10.7763 16.2776 9.82532 16.241 8.8809C16.2244 8.45692 16.0328 8.09184 15.6708 7.7963Z" fill="#91D96C"/>
<path d="M16.2411 8.88094C16.2245 8.45693 16.0328 8.09187 15.6709 7.79633L14.8086 7.79674V11.2227C14.8815 11.2227 14.9545 11.1955 15.0109 11.1414C15.3931 10.7763 16.2777 9.82535 16.2411 8.88094Z" fill="#6FBF5F"/>
<path d="M12.9841 5.49194C11.0389 7.2755 11.4864 9.42478 11.596 9.83363C11.6309 9.96437 11.7493 10.0508 11.8786 10.0508C13.1808 10.0508 14.9226 8.78863 14.9136 6.53544L12.9841 5.49194Z" fill="#6FBF5F"/>
<path d="M16.9701 5.81897L14.7496 7.16659C14.9663 8.91588 16.5618 10.0508 17.7386 10.0508C17.8679 10.0508 17.986 9.96467 18.0212 9.83364C18.1188 9.47028 18.5265 7.54932 16.9701 5.81897Z" fill="#53A653"/>
<path d="M14.8086 4.17188C12.2814 4.17188 11 5.47285 11 8C11 8.16193 11.131 8.29297 11.293 8.29297C12.3269 8.29297 13.6013 7.52336 14.0564 7.0201L14.8086 7.05236L15.6246 7.08734C16.0969 7.55568 17.2968 8.29297 18.3242 8.29297C18.4862 8.29297 18.6172 8.16193 18.6172 8C18.6172 5.47285 17.3357 4.17188 14.8086 4.17188Z" fill="#91D96C"/>
<path d="M18.3242 8.29297C18.4862 8.29297 18.6172 8.16193 18.6172 8C18.6172 5.47285 17.3357 4.17188 14.8086 4.17188V7.05236L15.6246 7.08734C16.0969 7.55568 17.2968 8.29297 18.3242 8.29297Z" fill="#6FBF5F"/>
<path d="M14.8086 4.17188C13.6093 4.17188 13.0508 4.84314 13.0508 6.24219C13.0508 7.85438 14.5923 8.79766 14.6578 8.83713C14.7042 8.86488 14.7565 8.87891 14.8086 8.87891C14.8607 8.87891 14.913 8.86488 14.9594 8.83713C15.0249 8.79766 16.5664 7.85438 16.5664 6.24219C16.5664 4.84314 16.0079 4.17188 14.8086 4.17188Z" fill="#B5F279"/>
<path d="M16.5664 6.24219C16.5664 4.84314 16.0079 4.17188 14.8086 4.17188V8.87891C14.8607 8.87891 14.913 8.86488 14.9594 8.83713C15.0249 8.79766 16.5664 7.85438 16.5664 6.24219Z" fill="#91D96C"/>
</g>
<defs>
<clipPath id="clip0">
<rect width="7.61719" height="10" fill="white" transform="translate(11 3)"/>
</clipPath>
</defs>
</svg>
