<svg width="41" height="25" viewBox="0 0 41 25" fill="none" xmlns="http://www.w3.org/2000/svg">
<rect x="0.5" y="0.5" width="40" height="24" rx="7.5" fill="white" stroke="#33BEB8"/>
<path d="M10.2598 19.4971V21H9.38086V16.7344H11.0449C11.3652 16.7344 11.6465 16.793 11.8887 16.9102C12.1328 17.0273 12.3203 17.1943 12.4512 17.4111C12.582 17.626 12.6475 17.8711 12.6475 18.1465C12.6475 18.5645 12.5039 18.8945 12.2168 19.1367C11.9316 19.377 11.5361 19.4971 11.0303 19.4971H10.2598ZM10.2598 18.7852H11.0449C11.2773 18.7852 11.4541 18.7305 11.5752 18.6211C11.6982 18.5117 11.7598 18.3555 11.7598 18.1523C11.7598 17.9434 11.6982 17.7744 11.5752 17.6455C11.4521 17.5166 11.2822 17.4502 11.0654 17.4463H10.2598V18.7852ZM16.7578 18.9639C16.7578 19.3838 16.6836 19.752 16.5352 20.0684C16.3867 20.3848 16.1738 20.6289 15.8965 20.8008C15.6211 20.9727 15.3047 21.0586 14.9473 21.0586C14.5938 21.0586 14.2783 20.9736 14.001 20.8037C13.7236 20.6338 13.5088 20.3916 13.3564 20.0771C13.2041 19.7607 13.127 19.3975 13.125 18.9873V18.7764C13.125 18.3564 13.2002 17.9873 13.3506 17.6689C13.5029 17.3486 13.7168 17.1035 13.9922 16.9336C14.2695 16.7617 14.5859 16.6758 14.9414 16.6758C15.2969 16.6758 15.6123 16.7617 15.8877 16.9336C16.165 17.1035 16.3789 17.3486 16.5293 17.6689C16.6816 17.9873 16.7578 18.3555 16.7578 18.7734V18.9639ZM15.8672 18.7705C15.8672 18.3232 15.7871 17.9834 15.627 17.751C15.4668 17.5186 15.2383 17.4023 14.9414 17.4023C14.6465 17.4023 14.4189 17.5176 14.2588 17.748C14.0986 17.9766 14.0176 18.3125 14.0156 18.7559V18.9639C14.0156 19.3994 14.0957 19.7373 14.2559 19.9775C14.416 20.2178 14.6465 20.3379 14.9473 20.3379C15.2422 20.3379 15.4688 20.2227 15.627 19.9922C15.7852 19.7598 15.8652 19.4219 15.8672 18.9785V18.7705ZM18.2754 20.2939H20.1416V21H17.3965V16.7344H18.2754V20.2939ZM23.1152 20.1211H21.5742L21.2812 21H20.3467L21.9346 16.7344H22.749L24.3457 21H23.4111L23.1152 20.1211ZM21.8115 19.4092H22.8779L22.3418 17.8125L21.8115 19.4092ZM28.2129 21H27.334L25.623 18.1934V21H24.7441V16.7344H25.623L27.3369 19.5469V16.7344H28.2129V21ZM28.9805 21V16.7344H30.293C30.668 16.7344 31.0029 16.8193 31.2979 16.9893C31.5947 17.1572 31.8262 17.3975 31.9922 17.71C32.1582 18.0205 32.2412 18.374 32.2412 18.7705V18.9668C32.2412 19.3633 32.1592 19.7158 31.9951 20.0244C31.833 20.333 31.6035 20.5723 31.3066 20.7422C31.0098 20.9121 30.6748 20.998 30.3018 21H28.9805ZM29.8594 17.4463V20.2939H30.2842C30.6279 20.2939 30.8906 20.1816 31.0723 19.957C31.2539 19.7324 31.3467 19.4111 31.3506 18.9932V18.7676C31.3506 18.334 31.2607 18.0059 31.0811 17.7832C30.9014 17.5586 30.6387 17.4463 30.293 17.4463H29.8594Z" fill="#33BEB8"/>
<g clip-path="url(#clip0)">
<path d="M21 13C23.7614 13 26 10.7614 26 8C26 5.23858 23.7614 3 21 3C18.2386 3 16 5.23858 16 8C16 10.7614 18.2386 13 21 13Z" fill="#87DCFF"/>
<path d="M21.5823 3.03485L21.3758 3.67798C21.3259 3.83362 21.2007 3.95352 21.0431 3.99675L20.5253 4.13872C20.4836 4.15014 20.4405 4.15594 20.3973 4.15594H19.6225C19.5416 4.15594 19.4733 4.21579 19.4626 4.29591L19.3737 4.96239L18.8788 4.98831C18.7956 4.99266 18.7294 5.0597 18.7261 5.14296L18.709 5.57309C18.7051 5.66995 18.7869 5.74831 18.8835 5.74026L19.2132 5.71278C19.298 5.70571 19.3754 5.6618 19.425 5.59268L19.7299 5.16737L20.3821 5.14407C20.5216 5.13909 20.6202 5.27944 20.5695 5.40952C20.4559 5.70138 20.4557 5.72637 20.4557 5.75204C20.4557 5.8412 20.5279 5.91333 20.617 5.91333C20.6967 5.91333 20.763 5.85536 20.7759 5.77944C20.787 5.74227 20.8362 5.61341 20.9007 5.44981C20.9276 5.38149 21.0204 5.37143 21.0609 5.43272L21.1026 5.49583C21.1797 5.61253 21.3232 5.66624 21.458 5.62884L21.746 5.54891C21.8263 5.52665 21.8911 5.46739 21.9205 5.38944L21.9757 5.24288C22.0147 5.13938 22.104 5.06309 22.2123 5.04073L22.3985 5.00231C22.5251 4.97618 22.6594 5.05276 22.6815 5.1802C22.704 5.3104 22.6125 5.42868 22.4854 5.44325L22.0366 5.4553C21.9454 5.45776 21.872 5.5313 21.8699 5.62259L21.8689 5.66555C21.868 5.70007 21.8871 5.732 21.9178 5.74768L22.1759 5.87936C22.2741 5.92948 22.3062 6.0544 22.2441 6.14561C22.21 6.19579 22.1533 6.22581 22.0926 6.22581H20.7314C20.6958 6.22581 20.6605 6.21911 20.6274 6.20604L19.4851 5.75608C19.4006 5.72278 19.3045 5.74081 19.2378 5.80247L18.156 6.80227C18.0698 6.88198 18.0337 7.00225 18.0617 7.11628L18.2817 8.00977C18.3156 8.14768 18.4358 8.24716 18.5776 8.25479L19.7963 8.32032C20.0361 8.33321 20.2301 8.52001 20.2522 8.75911L20.3446 9.76276C20.3515 9.83784 20.3713 9.91024 20.4039 9.97825C20.5066 10.1925 20.746 10.6795 20.8791 10.8478C21.0505 11.0645 21.4727 11.0731 21.615 10.9436L22.6059 10.1327C22.6887 10.0573 22.7428 9.95556 22.759 9.84474L22.8751 9.04841L23.6619 8.18126C23.7386 8.09677 23.7041 7.96722 23.6066 7.92536L23.5925 7.93481C23.5328 7.97481 23.464 7.99907 23.3928 8.00538C23.3802 8.00647 23.3676 8.00712 23.355 8.00712C23.2091 8.00712 23.0738 7.93309 22.9952 7.80802L22.3945 6.85413C22.3471 6.77868 22.3698 6.67913 22.4451 6.63157C22.521 6.58448 22.6201 6.607 22.6676 6.68214L23.2684 7.63618C23.289 7.66927 23.3255 7.68722 23.3646 7.68407C23.3818 7.68249 23.3986 7.67651 23.4131 7.6669L24.2251 7.2219C24.3098 7.17552 24.3322 7.06407 24.272 6.98858C24.2386 6.94661 24.1859 6.92483 24.1326 6.93095L23.962 6.95055C23.9162 6.95583 23.8703 6.94124 23.836 6.9105L23.3252 6.45362C23.2589 6.39425 23.2532 6.29233 23.3126 6.22587C23.3718 6.1594 23.4738 6.15389 23.5404 6.21327L23.9972 6.62184L24.2747 6.58987C24.3322 6.58278 24.3892 6.60798 24.4234 6.65493L24.4768 6.72802L24.7473 6.69555C24.8788 6.67977 25.0065 6.74593 25.0695 6.86239L25.6157 7.87241C25.6554 7.94569 25.7218 8.00081 25.8012 8.02618L25.9977 8.0952C25.9982 8.06345 26.0001 8.03196 26.0001 8.00007C26.0001 5.43567 24.0692 3.32344 21.5823 3.03485ZM23.671 5.79489C23.6434 5.81364 23.6119 5.82261 23.5809 5.82261C23.529 5.82261 23.4782 5.79772 23.4471 5.75157L23.1112 5.2543C23.0612 5.18059 23.0806 5.08026 23.1545 5.03048C23.228 4.98038 23.3287 5.00009 23.3783 5.0738L23.7143 5.57106C23.7642 5.64477 23.7448 5.74511 23.671 5.79489Z" fill="#BEE86E"/>
<path d="M22.6398 11.3602C19.8784 11.3602 17.6398 9.12164 17.6398 6.36021C17.6398 5.39967 17.9112 4.50275 18.3807 3.74094C16.9525 4.62119 16 6.19912 16 8C16 10.7614 18.2386 13 21 13C22.8009 13 24.3788 12.0475 25.2591 10.6193C24.4972 11.0888 23.6004 11.3602 22.6398 11.3602Z" fill="#00C3FF"/>
<path d="M23.1773 10.6412C23.1407 10.6412 23.1039 10.6287 23.0736 10.6034C23.0054 10.546 22.9966 10.4443 23.054 10.3761L23.4773 9.87205C23.5345 9.80401 23.6364 9.79502 23.7046 9.85237C23.7728 9.90971 23.7817 10.0114 23.7243 10.0797L23.3009 10.5837C23.2691 10.6216 23.2233 10.6412 23.1773 10.6412Z" fill="#BEE86E"/>
<path d="M19.6245 3.1932L19.481 3.62078C19.4526 3.70521 19.4981 3.79672 19.5826 3.82508C19.5996 3.83074 19.6169 3.83342 19.6339 3.83342C19.7013 3.83342 19.7642 3.7909 19.7869 3.72347L19.9958 3.10101C19.87 3.12662 19.7466 3.15832 19.6245 3.1932Z" fill="#BEE86E"/>
<path d="M16.8374 10.7698L16.9769 9.50191C16.9881 9.4024 16.9524 9.30336 16.8803 9.23385L16.0195 8.42892C16.0927 9.28992 16.3833 10.0887 16.8374 10.7698Z" fill="#AFD755"/>
<path d="M21 3C20.8191 3 20.6406 3.01014 20.4647 3.02887L20.4479 3.40732C20.4057 3.53412 20.4741 3.67115 20.6008 3.71336C20.6262 3.72186 20.652 3.7258 20.6774 3.7258C20.7787 3.7258 20.8732 3.6617 20.9069 3.56041L21.0929 3.00234C21.0619 3.00178 21.0311 3 21 3Z" fill="#BEE86E"/>
</g>
<defs>
<clipPath id="clip0">
<rect width="10" height="10" fill="white" transform="translate(16 3)"/>
</clipPath>
</defs>
</svg>
