<svg width="20" height="25" viewBox="0 0 20 25" fill="none" xmlns="http://www.w3.org/2000/svg">
<rect x="0.5" y="0.5" width="19" height="24" rx="7.5" fill="white" stroke="#E5394B"/>
<path d="M8.07031 18.0015C8.07031 18.2085 8.01855 18.3921 7.91504 18.5523C7.81152 18.7124 7.66895 18.8404 7.4873 18.9361C7.69434 19.0357 7.8584 19.1734 7.97949 19.3492C8.10059 19.523 8.16113 19.7281 8.16113 19.9644C8.16113 20.3433 8.03223 20.6431 7.77441 20.8638C7.5166 21.0826 7.16602 21.1919 6.72266 21.1919C6.2793 21.1919 5.92773 21.0816 5.66797 20.8609C5.4082 20.6402 5.27832 20.3413 5.27832 19.9644C5.27832 19.7281 5.33887 19.522 5.45996 19.3462C5.58105 19.1704 5.74414 19.0337 5.94922 18.9361C5.76758 18.8404 5.625 18.7124 5.52148 18.5523C5.41992 18.3921 5.36914 18.2085 5.36914 18.0015C5.36914 17.6382 5.49023 17.3492 5.73242 17.1343C5.97461 16.9175 6.30371 16.8091 6.71973 16.8091C7.13379 16.8091 7.46191 16.9165 7.7041 17.1314C7.94824 17.3443 8.07031 17.6343 8.07031 18.0015ZM7.31152 19.9029C7.31152 19.7173 7.25781 19.5689 7.15039 19.4576C7.04297 19.3462 6.89844 19.2906 6.7168 19.2906C6.53711 19.2906 6.39355 19.3462 6.28613 19.4576C6.17871 19.5669 6.125 19.7154 6.125 19.9029C6.125 20.0845 6.17773 20.231 6.2832 20.3423C6.38867 20.4536 6.53516 20.5093 6.72266 20.5093C6.90625 20.5093 7.0498 20.4556 7.15332 20.3482C7.25879 20.2408 7.31152 20.0923 7.31152 19.9029ZM7.22363 18.0425C7.22363 17.8765 7.17969 17.7437 7.0918 17.6441C7.00391 17.5425 6.87988 17.4917 6.71973 17.4917C6.56152 17.4917 6.43848 17.5406 6.35059 17.6382C6.2627 17.7359 6.21875 17.8706 6.21875 18.0425C6.21875 18.2124 6.2627 18.3492 6.35059 18.4527C6.43848 18.5562 6.5625 18.6079 6.72266 18.6079C6.88281 18.6079 7.00586 18.5562 7.0918 18.4527C7.17969 18.3492 7.22363 18.2124 7.22363 18.0425ZM8.81445 20.7173C8.81445 20.5826 8.85938 20.4732 8.94922 20.3892C9.04102 20.3052 9.15527 20.2632 9.29199 20.2632C9.43066 20.2632 9.54492 20.3052 9.63477 20.3892C9.72656 20.4732 9.77246 20.5826 9.77246 20.7173C9.77246 20.8501 9.72754 20.9585 9.6377 21.0425C9.54785 21.1245 9.43262 21.1656 9.29199 21.1656C9.15332 21.1656 9.03906 21.1245 8.94922 21.0425C8.85938 20.9585 8.81445 20.8501 8.81445 20.7173ZM13.4053 21.1333H10.4814V20.5533L11.8613 19.0826C12.0508 18.8755 12.1904 18.6949 12.2803 18.5406C12.3721 18.3863 12.418 18.2398 12.418 18.1011C12.418 17.9117 12.3701 17.7632 12.2744 17.6558C12.1787 17.5464 12.042 17.4917 11.8643 17.4917C11.6729 17.4917 11.5215 17.5581 11.4102 17.6909C11.3008 17.8218 11.2461 17.9947 11.2461 18.2095H10.3965C10.3965 17.9497 10.458 17.7124 10.5811 17.4976C10.7061 17.2827 10.8818 17.1148 11.1084 16.9937C11.335 16.8706 11.5918 16.8091 11.8789 16.8091C12.3184 16.8091 12.6592 16.9146 12.9014 17.1255C13.1455 17.3365 13.2676 17.6343 13.2676 18.0191C13.2676 18.23 13.2129 18.4449 13.1035 18.6636C12.9941 18.8824 12.8066 19.1372 12.541 19.4283L11.5713 20.4507H13.4053V21.1333ZM14.0059 17.6177C14.0059 17.3951 14.085 17.2046 14.2432 17.0464C14.4014 16.8882 14.5879 16.8091 14.8027 16.8091C15.0156 16.8091 15.1992 16.8882 15.3535 17.0464C15.5098 17.2027 15.5879 17.3931 15.5879 17.6177C15.5879 17.8423 15.5098 18.0318 15.3535 18.1861C15.1992 18.3384 15.0156 18.4146 14.8027 18.4146C14.5918 18.4146 14.4062 18.3384 14.2461 18.1861C14.0859 18.0318 14.0059 17.8423 14.0059 17.6177ZM14.8027 17.981C14.9062 17.981 14.9912 17.9468 15.0576 17.8784C15.126 17.8081 15.1602 17.7212 15.1602 17.6177C15.1602 17.5161 15.126 17.4283 15.0576 17.354C14.9912 17.2798 14.9062 17.2427 14.8027 17.2427C14.6992 17.2427 14.6123 17.2798 14.542 17.354C14.4717 17.4283 14.4365 17.5161 14.4365 17.6177C14.4365 17.7193 14.4717 17.8052 14.542 17.8755C14.6143 17.9458 14.7012 17.981 14.8027 17.981Z" fill="#E5394B"/>
<g clip-path="url(#clip0)">
<path d="M5.63976 3.88589C5.73172 4.26568 6.22545 4.41537 6.53894 4.15856C6.59191 4.11515 6.67128 4.16894 6.64341 4.22936C6.47853 4.58703 6.78368 4.97903 7.1991 4.94324C7.26932 4.93722 7.29964 5.02419 7.23899 5.05784C6.88038 5.25681 6.88038 5.74136 7.23899 5.94025C7.29964 5.9739 7.26932 6.06087 7.1991 6.05485C6.78368 6.01907 6.47853 6.41106 6.64341 6.76873C6.67128 6.82923 6.59191 6.88294 6.53894 6.83953C6.22545 6.58273 5.73164 6.73249 5.63976 7.11221C5.62423 7.17645 5.52622 7.17645 5.51069 7.11221C5.41881 6.73241 4.92507 6.58273 4.61151 6.83953C4.55854 6.88294 4.47916 6.82923 4.50704 6.76873C4.67192 6.41106 4.36677 6.01907 3.95135 6.05485C3.88113 6.06087 3.8508 5.9739 3.91146 5.94025C4.27006 5.74136 4.27006 5.25681 3.91146 5.05784C3.85088 5.02419 3.88113 4.93722 3.95135 4.94324C4.36677 4.97903 4.67192 4.58703 4.50704 4.22936C4.47916 4.16894 4.55854 4.11515 4.61151 4.15856C4.92507 4.41537 5.41881 4.26568 5.51069 3.88589C5.52622 3.82165 5.62423 3.82165 5.63976 3.88589Z" fill="#FD8F31"/>
<path d="M7.239 5.94025C6.88039 5.74136 6.88039 5.25681 7.239 5.05784C7.29966 5.02427 7.26933 4.93722 7.19911 4.94332C6.78377 4.9791 6.47862 4.58703 6.64342 4.22936C6.67129 4.16894 6.592 4.11515 6.53895 4.15856C6.22546 4.41544 5.73173 4.26568 5.63977 3.88589C5.62424 3.82165 5.52623 3.82165 5.5107 3.88589C5.47669 4.02634 5.38776 4.13514 5.27332 4.2038C5.67925 4.50829 5.93928 4.97521 5.93928 5.49912C5.93928 6.02296 5.67925 6.48995 5.27332 6.79444C5.38776 6.86303 5.47669 6.9719 5.5107 7.11228C5.52623 7.17652 5.62432 7.17652 5.63977 7.11228C5.73173 6.73249 6.22546 6.5828 6.53895 6.83961C6.592 6.88302 6.67129 6.82931 6.64342 6.76881C6.47862 6.41114 6.78377 6.01914 7.19911 6.05492C7.26933 6.06095 7.29966 5.9739 7.239 5.94025Z" fill="#FF7F1F"/>
<path d="M6.30499 5.49907C6.30499 5.87527 5.97826 6.18015 5.57518 6.18015C5.17219 6.18015 4.84546 5.87527 4.84546 5.49907C4.84546 5.12294 5.17219 4.81799 5.57518 4.81799C5.97826 4.81799 6.30499 5.12294 6.30499 5.49907Z" fill="#FCCF3F"/>
<path d="M10.8685 9.29262V4.3474C10.8685 3.67685 10.2861 3.13333 9.56776 3.13333C8.84931 3.13333 8.26697 3.67685 8.26697 4.3474V9.29262C7.68496 9.67477 7.30469 10.3065 7.30469 11.0211C7.30469 12.1877 8.3179 13.1333 9.56776 13.1333C10.8176 13.1333 11.8308 12.1877 11.8308 11.0211C11.8308 10.3065 11.4505 9.67477 10.8685 9.29262Z" fill="#D8D8D8"/>
<path d="M9.56782 12.4416C8.706 12.4416 8.00488 11.7871 8.00488 10.9828C8.00488 10.372 8.41156 9.82822 9.02177 9.61604V4.34741C9.02177 4.06635 9.26668 3.83777 9.56782 3.83777C9.86888 3.83777 10.1139 4.06635 10.1139 4.34741V9.61604C10.724 9.82814 11.1308 10.372 11.1308 10.9828C11.1308 11.7871 10.4296 12.4416 9.56782 12.4416Z" fill="#F3E8D7"/>
<path d="M9.02177 5.27924V9.61601C8.41156 9.82811 8.00488 10.3719 8.00488 10.9827C8.00488 11.7871 8.706 12.4415 9.56782 12.4415C10.4296 12.4415 11.1308 11.7871 11.1308 10.9827C11.1308 10.3719 10.724 9.82811 10.1139 9.61601V5.27924H9.02177Z" fill="#FC4E51"/>
<path d="M12.6701 6.65323H11.7321C11.6428 6.65323 11.5704 6.58563 11.5704 6.50232C11.5704 6.41901 11.6428 6.35141 11.7321 6.35141H12.6701C12.7594 6.35141 12.8318 6.41901 12.8318 6.50232C12.8318 6.58563 12.7594 6.65323 12.6701 6.65323Z" fill="#0D6E9A"/>
<path d="M12.158 5.43018H11.7321C11.6428 5.43018 11.5704 5.36258 11.5704 5.27927C11.5704 5.19595 11.6428 5.12836 11.7321 5.12836H12.158C12.2473 5.12836 12.3197 5.19595 12.3197 5.27927C12.3197 5.36258 12.2473 5.43018 12.158 5.43018Z" fill="#0D6E9A"/>
<path d="M12.3089 4.20709H11.7321C11.6428 4.20709 11.5704 4.1395 11.5704 4.05618C11.5704 3.97287 11.6428 3.90527 11.7321 3.90527H12.3089C12.3983 3.90527 12.4706 3.97287 12.4706 4.05618C12.4706 4.1395 12.3983 4.20709 12.3089 4.20709Z" fill="#0D6E9A"/>
<path d="M12.3089 9.09937H11.7321C11.6428 9.09937 11.5704 9.03177 11.5704 8.94846C11.5704 8.86507 11.6428 8.79755 11.7321 8.79755H12.3089C12.3983 8.79755 12.4706 8.86507 12.4706 8.94846C12.4706 9.03177 12.3983 9.09937 12.3089 9.09937Z" fill="#0D6E9A"/>
<path d="M12.158 7.87628H11.7321C11.6428 7.87628 11.5704 7.80869 11.5704 7.72537C11.5704 7.64206 11.6428 7.57446 11.7321 7.57446H12.158C12.2473 7.57446 12.3197 7.64206 12.3197 7.72537C12.3197 7.80869 12.2473 7.87628 12.158 7.87628Z" fill="#0D6E9A"/>
<path d="M10.1138 9.61601V5.27924H9.02166V9.61601C9.02166 9.61601 9.77656 9.94293 9.77656 10.9827C9.77656 11.5609 9.41436 12.0615 8.89062 12.2974C9.09556 12.3898 9.32526 12.4415 9.56762 12.4415C10.4294 12.4415 11.1306 11.7871 11.1306 10.9827C11.1306 10.3719 10.7239 9.82819 10.1138 9.61601Z" fill="#E5394B"/>
</g>
<defs>
<clipPath id="clip0">
<rect width="10.7143" height="10" fill="white" transform="translate(3 3.13333)"/>
</clipPath>
</defs>
</svg>
