<svg width="28" height="25" viewBox="0 0 28 25" fill="none" xmlns="http://www.w3.org/2000/svg">
<rect x="0.5" y="0.5" width="27" height="24" rx="7.5" fill="white" stroke="#FECC2F"/>
<path d="M4.38086 21V16.7344H5.875C6.39258 16.7344 6.78516 16.834 7.05273 17.0332C7.32031 17.2305 7.4541 17.5205 7.4541 17.9033C7.4541 18.1123 7.40039 18.2969 7.29297 18.457C7.18555 18.6152 7.03613 18.7314 6.84473 18.8057C7.06348 18.8604 7.23535 18.9707 7.36035 19.1367C7.4873 19.3027 7.55078 19.5059 7.55078 19.7461C7.55078 20.1562 7.41992 20.4668 7.1582 20.6777C6.89648 20.8887 6.52344 20.9961 6.03906 21H4.38086ZM5.25977 19.1426V20.2939H6.0127C6.21973 20.2939 6.38086 20.2451 6.49609 20.1475C6.61328 20.0479 6.67188 19.9111 6.67188 19.7373C6.67188 19.3467 6.46973 19.1484 6.06543 19.1426H5.25977ZM5.25977 18.5215H5.91016C6.35352 18.5137 6.5752 18.3369 6.5752 17.9912C6.5752 17.7979 6.51855 17.6592 6.40527 17.5752C6.29395 17.4893 6.11719 17.4463 5.875 17.4463H5.25977V18.5215ZM9.0918 20.2939H10.958V21H8.21289V16.7344H9.0918V20.2939ZM14.7812 18.9639C14.7812 19.3838 14.707 19.752 14.5586 20.0684C14.4102 20.3848 14.1973 20.6289 13.9199 20.8008C13.6445 20.9727 13.3281 21.0586 12.9707 21.0586C12.6172 21.0586 12.3018 20.9736 12.0244 20.8037C11.7471 20.6338 11.5322 20.3916 11.3799 20.0771C11.2275 19.7607 11.1504 19.3975 11.1484 18.9873V18.7764C11.1484 18.3564 11.2236 17.9873 11.374 17.6689C11.5264 17.3486 11.7402 17.1035 12.0156 16.9336C12.293 16.7617 12.6094 16.6758 12.9648 16.6758C13.3203 16.6758 13.6357 16.7617 13.9111 16.9336C14.1885 17.1035 14.4023 17.3486 14.5527 17.6689C14.7051 17.9873 14.7812 18.3555 14.7812 18.7734V18.9639ZM13.8906 18.7705C13.8906 18.3232 13.8105 17.9834 13.6504 17.751C13.4902 17.5186 13.2617 17.4023 12.9648 17.4023C12.6699 17.4023 12.4424 17.5176 12.2822 17.748C12.1221 17.9766 12.041 18.3125 12.0391 18.7559V18.9639C12.0391 19.3994 12.1191 19.7373 12.2793 19.9775C12.4395 20.2178 12.6699 20.3379 12.9707 20.3379C13.2656 20.3379 13.4922 20.2227 13.6504 19.9922C13.8086 19.7598 13.8887 19.4219 13.8906 18.9785V18.7705ZM18.8887 21H18.0098L16.2988 18.1934V21H15.4199V16.7344H16.2988L18.0127 19.5469V16.7344H18.8887V21ZM19.6562 21V16.7344H20.9688C21.3438 16.7344 21.6787 16.8193 21.9736 16.9893C22.2705 17.1572 22.502 17.3975 22.668 17.71C22.834 18.0205 22.917 18.374 22.917 18.7705V18.9668C22.917 19.3633 22.835 19.7158 22.6709 20.0244C22.5088 20.333 22.2793 20.5723 21.9824 20.7422C21.6855 20.9121 21.3506 20.998 20.9775 21H19.6562ZM20.5352 17.4463V20.2939H20.96C21.3037 20.2939 21.5664 20.1816 21.748 19.957C21.9297 19.7324 22.0225 19.4111 22.0264 18.9932V18.7676C22.0264 18.334 21.9365 18.0059 21.7568 17.7832C21.5771 17.5586 21.3145 17.4463 20.9688 17.4463H20.5352Z" fill="#FECC2F"/>
<circle cx="14" cy="8" r="5" fill="#FECC2F"/>
</svg>
