<svg width="30" height="30" viewBox="0 0 30 30" fill="none" xmlns="http://www.w3.org/2000/svg">
<path d="M13.2 4.64926V3.55924C13.2 2.89651 12.6628 2.35922 12 2.35922H1.20002C0.537228 2.35922 0 2.89645 0 3.55924V10.622H30V6.64929C30 5.98657 29.4628 5.44928 28.8 5.44928H14C13.5582 5.44928 13.2 5.0911 13.2 4.64926Z" fill="#EFBE57"/>
<path d="M28.4 27.6408H1.60002C0.716346 27.6408 0 26.9245 0 26.0408V10.3365H13.2448C13.5823 10.3365 13.9042 10.1944 14.1315 9.94501L15.6058 8.32801C15.8332 8.07861 16.1551 7.93652 16.4926 7.93652H30V26.0408C30 26.9245 29.2837 27.6408 28.4 27.6408Z" fill="#FCD462"/>
</svg>
