<svg width="31" height="30" viewBox="0 0 31 30" fill="none" xmlns="http://www.w3.org/2000/svg">
<g clip-path="url(#clip0)">
<path d="M2.74593 3.23177H9.94382C10.4152 3.23177 10.8507 3.48276 11.0859 3.88994L12.2706 5.5031C12.5058 5.91028 12.9413 6.16128 13.4126 6.16128H30.9451V24.5789C30.9451 25.5462 30.1584 26.3304 29.188 26.3304H2.60551C1.63511 26.3304 0.848389 25.5462 0.848389 24.5789V8.20436C0.848389 6.85053 1.05823 5.50477 1.47051 4.2148C1.62155 3.63587 2.14585 3.23177 2.74593 3.23177Z" fill="black"/>
<path d="M26.7217 5.86H3.58728V15.6012H26.7217V5.86Z" fill="#2E2C2D"/>
<path d="M29.6273 4.1075H22.3738C21.858 4.1075 21.3896 4.4075 21.1752 4.87516L19.934 7.58289C19.7196 8.05054 19.2512 8.35055 18.7354 8.35055H0.848389V25.0167C0.848389 25.984 1.63511 26.7682 2.60551 26.7682H29.188C30.1584 26.7682 30.9452 25.984 30.9452 25.0167V5.4211C30.9452 4.69566 30.3551 4.1075 29.6273 4.1075Z" fill="#464445"/>
</g>
<defs>
<clipPath id="clip0">
<rect width="30.0968" height="30" fill="white" transform="translate(0.848389)"/>
</clipPath>
</defs>
</svg>
