<?xml version="1.0" encoding="iso-8859-1"?>
<!-- Generator: Adobe Illustrator 19.0.0, SVG Export Plug-In . SVG Version: 6.00 Build 0)  -->
<svg version="1.1" id="Capa_1" xmlns="http://www.w3.org/2000/svg" xmlns:xlink="http://www.w3.org/1999/xlink" x="0px" y="0px"
	 viewBox="0 0 512 512" style="enable-background:new 0 0 512 512;" xml:space="preserve">
<g>
	<g>
		<path d="M451.997,195.997H205.025l81.965-82.556c17.43-17.537,22.358-42.613,12.861-65.442
			c-9.496-22.829-30.755-37.011-55.482-37.011c-16.079,0-31.188,6.268-42.551,17.66L17.549,213.571
			c-23.395,23.395-23.395,61.462-0.025,84.832l184.301,184.956c11.356,11.383,26.464,17.652,42.543,17.652
			c24.725,0,45.985-14.182,55.483-37.01c9.496-22.829,4.567-47.905-12.855-65.433l-81.972-82.565h146.967
			c11.047,0,20.001-8.954,20.001-20.001c0-11.047-8.954-20.001-20.001-20.001h-195.01c-8.076,0-15.361,4.857-18.465,12.314
			c-3.104,7.455-1.419,16.048,4.271,21.778l115.83,116.666c8.765,8.819,5.507,18.976,4.299,21.878
			c-1.208,2.902-6.113,12.374-18.549,12.374c-5.375,0-10.427-2.096-14.215-5.894L45.835,270.142
			c-7.798-7.798-7.798-20.487,0.025-28.31L230.144,56.891c3.797-3.805,8.848-5.901,14.224-5.901
			c12.436,0,17.341,9.471,18.549,12.374c1.208,2.903,4.466,13.059-4.307,21.886L142.789,201.907
			c-5.69,5.731-7.375,14.323-4.271,21.779c3.104,7.456,10.388,12.314,18.465,12.314h295.014c11.029,0,20.001,8.972,20.001,20.001
			c0,11.029-8.972,20.001-20.001,20.001c-11.047,0-20.001,8.954-20.001,20.001c0,11.047,8.954,20.001,20.001,20.001
			C485.082,316.003,512,289.086,512,256C512,222.915,485.082,195.997,451.997,195.997z"/>
	</g>
</g>
<g>
</g>
<g>
</g>
<g>
</g>
<g>
</g>
<g>
</g>
<g>
</g>
<g>
</g>
<g>
</g>
<g>
</g>
<g>
</g>
<g>
</g>
<g>
</g>
<g>
</g>
<g>
</g>
<g>
</g>
</svg>
