<svg width="20" height="20" viewBox="0 0 30 30" fill="none" xmlns="http://www.w3.org/2000/svg">
<path d="M25.7351 18.5366H24.5082C24.3082 18.5366 24.1461 18.3745 24.1461 18.1745V4.26472C24.1461 4.06469 24.3082 3.90256 24.5082 3.90256H25.7351C25.9352 3.90256 26.0973 4.06469 26.0973 4.26472V18.1745C26.0973 18.3745 25.9352 18.5366 25.7351 18.5366Z" fill="#2E2C2D"/>
<path d="M5.4914 18.5366H4.26457C4.06453 18.5366 3.9024 18.3745 3.9024 18.1745V4.26472C3.9024 4.06469 4.06453 3.90256 4.26457 3.90256H5.49146C5.6915 3.90256 5.85363 4.06469 5.85363 4.26472V18.1745C5.85357 18.3745 5.69144 18.5366 5.4914 18.5366Z" fill="#2E2C2D"/>
<path d="M15.6135 15.3659H14.3866C14.1866 15.3659 14.0245 15.2038 14.0245 15.0037V4.26472C14.0245 4.06469 14.1866 3.90256 14.3866 3.90256H15.6135C15.8136 3.90256 15.9757 4.06469 15.9757 4.26472V15.0037C15.9757 15.2038 15.8136 15.3659 15.6135 15.3659Z" fill="#2E2C2D"/>
<path d="M25.1219 0.362289V1.58918C25.1219 1.78922 25.2841 1.95134 25.4841 1.95134H28.0488V4.51598C28.0488 4.71602 28.2109 4.87815 28.4109 4.87815H29.6378C29.8379 4.87815 30 4.71602 30 4.51598V0.362289C30 0.16225 29.8379 0.00012207 29.6378 0.00012207H25.4841C25.2841 0.00012207 25.1219 0.16225 25.1219 0.362289Z" fill="#6FBF5F"/>
<path d="M4.87803 0.362167V1.58906C4.87803 1.78909 4.7159 1.95122 4.51586 1.95122H1.95122V4.51586C1.95122 4.7159 1.78909 4.87803 1.58906 4.87803H0.362167C0.162128 4.87803 0 4.7159 0 4.51586V0.362167C0 0.162128 0.162128 0 0.362167 0H4.51586C4.7159 0 4.87803 0.162128 4.87803 0.362167Z" fill="#6FBF5F"/>
<path d="M25.1219 22.0769V20.85C25.1219 20.65 25.2841 20.4879 25.4841 20.4879H28.0488V17.9232C28.0488 17.7232 28.2109 17.5611 28.4109 17.5611H29.6378C29.8379 17.5611 30 17.7232 30 17.9232V22.0769C30 22.277 29.8379 22.4391 29.6378 22.4391H25.4841C25.2841 22.439 25.1219 22.2769 25.1219 22.0769Z" fill="#6FBF5F"/>
<path d="M4.87803 22.0769V20.85C4.87803 20.65 4.7159 20.4879 4.51586 20.4879H1.95122V17.9232C1.95122 17.7232 1.78909 17.5611 1.58906 17.5611H0.362167C0.162128 17.5611 0 17.7232 0 17.9232V22.0769C0 22.277 0.162128 22.4391 0.362167 22.4391H4.51586C4.7159 22.439 4.87803 22.2769 4.87803 22.0769Z" fill="#6FBF5F"/>
<path d="M18.0178 14.9035C17.7678 14.9035 17.5651 14.7008 17.5651 14.4508V4.35525C17.5651 4.10517 17.7678 3.90256 18.0178 3.90256C18.2678 3.90256 18.4705 4.10523 18.4705 4.35525V14.4508C18.4705 14.7008 18.2678 14.9035 18.0178 14.9035Z" fill="#2E2C2D"/>
<path d="M20.0607 15.8186C19.8106 15.8186 19.608 15.6159 19.608 15.3659V4.35525C19.608 4.10517 19.8106 3.90256 20.0607 3.90256C20.3107 3.90256 20.5134 4.10523 20.5134 4.35525V15.3659C20.5134 15.6159 20.3107 15.8186 20.0607 15.8186Z" fill="#2E2C2D"/>
<path d="M22.1036 15.8186C21.8536 15.8186 21.6509 15.6159 21.6509 15.3659V4.35525C21.6509 4.10517 21.8536 3.90256 22.1036 3.90256C22.3536 3.90256 22.5563 4.10523 22.5563 4.35525V15.3659C22.5563 15.6159 22.3536 15.8186 22.1036 15.8186Z" fill="#2E2C2D"/>
<path d="M11.9819 14.9035C11.7319 14.9035 11.5292 14.7008 11.5292 14.4508V4.35525C11.5292 4.10517 11.7319 3.90256 11.9819 3.90256C12.2319 3.90256 12.4346 4.10523 12.4346 4.35525V14.4508C12.4346 14.7008 12.2319 14.9035 11.9819 14.9035Z" fill="#2E2C2D"/>
<path d="M9.93908 15.8186C9.68906 15.8186 9.48639 15.6159 9.48639 15.3659V4.35525C9.48639 4.10517 9.68906 3.90256 9.93908 3.90256C10.1891 3.90256 10.3918 4.10523 10.3918 4.35525V15.3659C10.3918 15.6159 10.1891 15.8186 9.93908 15.8186Z" fill="#2E2C2D"/>
<path d="M7.89624 15.8186C7.64622 15.8186 7.44354 15.6159 7.44354 15.3659V4.35525C7.44354 4.10517 7.64622 3.90256 7.89624 3.90256C8.14626 3.90256 8.34893 4.10523 8.34893 4.35525V15.3659C8.34893 15.6159 8.14626 15.8186 7.89624 15.8186Z" fill="#2E2C2D"/>
<path d="M18.7029 27.4123L21.2895 24.8257L22.8414 26.3776L20.2548 28.9642L18.7029 27.4123Z" fill="#2E2C2D"/>
<path d="M24.7056 30H22.5799C22.4198 30 22.2662 29.9364 22.1531 29.8232L20.7777 28.4478L22.3299 26.8956L24.919 29.4848C25.1091 29.6749 24.9745 30 24.7056 30Z" fill="#2E2C2D"/>
<path d="M15 28.4351C19.0411 28.4351 22.317 25.1592 22.317 21.1181C22.317 17.077 19.0411 13.8011 15 13.8011C10.9589 13.8011 7.68292 17.077 7.68292 21.1181C7.68292 25.1592 10.9589 28.4351 15 28.4351Z" fill="#2E2C2D"/>
<path d="M19.4248 15.2907C20.3593 16.5196 20.9145 18.0527 20.9145 19.7157C20.9145 23.7567 17.6385 27.0327 13.5974 27.0327C11.9345 27.0327 10.4013 26.4776 9.17249 25.543C10.5089 27.3004 12.6217 28.4351 14.9998 28.4351C19.0409 28.4351 22.3169 25.1592 22.3169 21.1181C22.3169 18.74 21.1821 16.6272 19.4248 15.2907Z" fill="#2E2C2D"/>
<path d="M15.0001 26.4839C17.9636 26.4839 20.3659 24.0815 20.3659 21.1181C20.3659 18.1546 17.9636 15.7523 15.0001 15.7523C12.0366 15.7523 9.63428 18.1546 9.63428 21.1181C9.63428 24.0815 12.0366 26.4839 15.0001 26.4839Z" fill="#F0F4EF"/>
<path d="M18.2403 16.8412C18.9235 17.7416 19.3292 18.8641 19.3292 20.0815C19.3292 23.045 16.9269 25.4473 13.9634 25.4473C12.746 25.4473 11.6235 25.0416 10.7231 24.3584C11.7029 25.6498 13.254 26.4839 15 26.4839C17.9635 26.4839 20.3658 24.0815 20.3658 21.1181C20.3658 19.372 19.5317 17.821 18.2403 16.8412Z" fill="#F0F4EF"/>
</svg>
