<svg width="30" height="30" viewBox="0 0 30 30" fill="none" xmlns="http://www.w3.org/2000/svg">
<path d="M7.50699 12.4777C7.49067 12.4797 7.47423 12.4807 7.45778 12.4807C7.35753 12.4806 7.26079 12.4438 7.18586 12.3772C7.11093 12.3106 7.063 12.2188 7.05114 12.1193C6.99278 11.6313 6.94051 11.1417 6.89621 10.6638C6.8888 10.557 6.92349 10.4515 6.99285 10.3698C7.06222 10.2882 7.16076 10.237 7.26741 10.2271C7.37406 10.2171 7.48036 10.2493 7.56358 10.3168C7.64681 10.3842 7.70035 10.4815 7.71278 10.5879C7.75684 11.0588 7.80793 11.5411 7.86559 12.0218C7.872 12.0753 7.86781 12.1295 7.85326 12.1814C7.8387 12.2332 7.81407 12.2817 7.78077 12.324C7.74746 12.3664 7.70614 12.4017 7.65917 12.4281C7.61219 12.4545 7.56048 12.4713 7.50699 12.4777ZM6.92996 20.8683C6.95543 21.1327 6.97582 21.3944 6.99114 21.6534C6.99717 21.7579 7.04289 21.856 7.11892 21.9278C7.19495 21.9996 7.29554 22.0396 7.40012 22.0397H7.42356C7.47732 22.0366 7.52994 22.0229 7.57841 21.9995C7.62688 21.976 7.67026 21.9432 7.70607 21.903C7.74187 21.8628 7.7694 21.8159 7.78708 21.765C7.80476 21.7142 7.81224 21.6603 7.8091 21.6066C7.79348 21.337 7.77239 21.0651 7.74582 20.7907C7.73544 20.6824 7.68246 20.5826 7.59853 20.5134C7.5146 20.4441 7.4066 20.4111 7.29828 20.4215C7.18997 20.4318 7.09022 20.4848 7.02097 20.5688C6.95172 20.6527 6.91864 20.7607 6.92903 20.869L6.92996 20.8683ZM24.7401 19.6643C24.7406 20.4952 24.537 21.3134 24.1472 22.0472C23.7574 22.7809 23.1934 23.4077 22.5046 23.8724C21.8158 24.337 21.0234 24.6254 20.1971 24.7121C19.3708 24.7988 18.5358 24.6812 17.7656 24.3696C17.7759 24.9157 17.8073 25.433 17.8579 25.9634C17.9562 25.9763 18.0465 26.0244 18.1119 26.0989C18.1774 26.1733 18.2135 26.269 18.2137 26.3681V27.7744C18.2133 28.0695 18.0959 28.3525 17.8872 28.5612C17.6785 28.7699 17.3956 28.8873 17.1004 28.8877H7.71723C7.42208 28.8873 7.13913 28.7699 6.93043 28.5612C6.72173 28.3525 6.60432 28.0695 6.60395 27.7744V26.3681C6.60412 26.2685 6.64068 26.1723 6.70675 26.0978C6.77283 26.0232 6.86388 25.9753 6.96278 25.9631C7.05218 24.9716 7.07981 23.9755 7.04551 22.9805C7.04409 22.9266 7.0533 22.873 7.07261 22.8227C7.09191 22.7724 7.12093 22.7264 7.15802 22.6873C7.1951 22.6482 7.23953 22.6168 7.28875 22.5949C7.33797 22.573 7.39102 22.561 7.44489 22.5595C7.49875 22.5581 7.55236 22.5673 7.60267 22.5866C7.65297 22.6059 7.69898 22.635 7.73807 22.6721C7.77716 22.7091 7.80856 22.7536 7.83048 22.8028C7.8524 22.852 7.86441 22.9051 7.86582 22.9589C7.89993 23.9596 7.87372 24.9614 7.78731 25.9589H17.0322C16.9715 25.2985 16.9427 24.6516 16.942 23.9463C16.1391 23.4363 15.4958 22.7107 15.0856 21.8525C14.6754 20.9942 14.5148 20.0379 14.6222 19.0928C14.7296 18.1476 15.1006 17.2517 15.6928 16.5074C16.2851 15.7631 17.0747 15.2003 17.9716 14.8833C18.3736 12.4356 18.6193 9.96484 18.7071 7.48594H17.0372V9.35555C17.0372 9.65081 16.9199 9.93398 16.7111 10.1428C16.5023 10.3515 16.2191 10.4688 15.9239 10.4688C15.6286 10.4688 15.3454 10.3515 15.1367 10.1428C14.9279 9.93398 14.8106 9.65081 14.8106 9.35555V8.30086C14.8106 8.22316 14.7797 8.14864 14.7248 8.0937C14.6698 8.03876 14.5953 8.00789 14.5176 8.00789C14.4399 8.00789 14.3654 8.03876 14.3105 8.0937C14.2555 8.14864 14.2247 8.22316 14.2247 8.30086V8.74992C14.2247 9.04519 14.1074 9.32835 13.8986 9.53713C13.6898 9.74591 13.4066 9.86321 13.1114 9.86321C12.8161 9.86321 12.5329 9.74591 12.3242 9.53713C12.1154 9.32835 11.9981 9.04519 11.9981 8.74992V7.48594H9.44809C9.33931 7.48594 9.23498 7.44273 9.15806 7.36581C9.08114 7.28889 9.03793 7.18456 9.03793 7.07578C9.03793 6.967 9.08114 6.86268 9.15806 6.78576C9.23498 6.70884 9.33931 6.66563 9.44809 6.66563H11.9981V6.07969H6.08129C6.08293 6.27867 6.08692 6.4711 6.08996 6.66563H7.38137C7.49015 6.66563 7.59447 6.70884 7.67139 6.78576C7.74831 6.86268 7.79153 6.967 7.79153 7.07578C7.79153 7.18456 7.74831 7.28889 7.67139 7.36581C7.59447 7.44273 7.49015 7.48594 7.38137 7.48594H6.10942C6.23434 11.2969 6.72864 14.2296 7.16715 16.8246C7.31926 17.7244 7.46317 18.5745 7.57801 19.3903C7.58556 19.4436 7.58252 19.4979 7.56908 19.5501C7.55563 19.6022 7.53204 19.6512 7.49965 19.6943C7.46726 19.7373 7.42671 19.7735 7.38032 19.8009C7.33392 19.8282 7.28259 19.8462 7.22926 19.8537C7.21017 19.8565 7.1909 19.8579 7.1716 19.8579C7.07281 19.8578 6.97737 19.822 6.90284 19.7572C6.8283 19.6923 6.77968 19.6028 6.7659 19.5049C6.65246 18.7001 6.50949 17.8556 6.35832 16.9613C5.89918 14.2444 5.37864 11.1652 5.27598 7.08609C5.26637 6.62461 5.25934 6.15305 5.25934 5.66953C5.2594 5.56077 5.30263 5.45648 5.37954 5.37958C5.45644 5.30267 5.56073 5.25944 5.66949 5.25938H5.78903C5.79509 4.79052 5.94052 4.33408 6.2068 3.94814C6.47308 3.5622 6.84818 3.26421 7.28434 3.09211C7.41415 2.6927 7.66706 2.34464 8.00682 2.0978C8.34659 1.85095 8.75578 1.71799 9.17575 1.71797C9.34354 1.71805 9.51062 1.73979 9.67285 1.78265C10.2673 1.36825 10.9697 1.13615 11.694 1.11475C12.4183 1.09336 13.1331 1.2836 13.751 1.66219C13.9489 1.60871 14.153 1.58176 14.358 1.58203C14.723 1.581 15.0831 1.66534 15.4096 1.82833C15.7362 1.99132 16.0201 2.22842 16.2386 2.5207C16.6397 2.58355 17.0137 2.76175 17.3152 3.03355C17.6167 3.30536 17.8325 3.65902 17.9364 4.05141C18.4105 4.31079 18.7656 4.74375 18.9272 5.25938H19.1463C19.2551 5.25938 19.3594 5.30259 19.4363 5.37951C19.5132 5.45643 19.5564 5.56075 19.5564 5.66953C19.5564 6.15305 19.5494 6.62461 19.54 7.08445C19.4715 9.6218 19.2367 12.1519 18.8369 14.6585C19.7425 14.508 20.6721 14.606 21.5264 14.9421C21.6276 14.9821 21.7088 15.0606 21.7521 15.1604C21.7954 15.2601 21.7973 15.3731 21.7573 15.4743C21.7174 15.5755 21.6389 15.6566 21.5391 15.7C21.4393 15.7433 21.3264 15.7452 21.2252 15.7052C20.2419 15.3168 19.1492 15.3078 18.1597 15.6801C17.1701 16.0524 16.3543 16.7794 15.8709 17.7197C15.3876 18.66 15.2711 19.7465 15.5442 20.7679C15.8173 21.7893 16.4604 22.6726 17.3486 23.2462C18.2367 23.8198 19.3064 24.0427 20.3498 23.8715C21.3931 23.7003 22.3355 23.1472 22.9937 22.3198C23.652 21.4924 23.979 20.4498 23.9113 19.3947C23.8436 18.3396 23.386 17.3474 22.6275 16.6109C22.5505 16.5349 22.5066 16.4316 22.5054 16.3234C22.5042 16.2152 22.5458 16.111 22.6212 16.0333C22.6965 15.9557 22.7994 15.9109 22.9076 15.9088C23.0158 15.9067 23.1204 15.9475 23.1986 16.0221C23.6881 16.4937 24.077 17.0595 24.3419 17.6854C24.6069 18.3113 24.7423 18.9844 24.7401 19.6641V19.6643ZM16.6265 5.25938H18.0403C17.9002 5.01322 17.682 4.82092 17.4201 4.71305C17.3543 4.68603 17.2966 4.64236 17.2528 4.58631C17.2089 4.53026 17.1804 4.46376 17.17 4.39336C17.1266 4.10529 16.9851 3.84102 16.7694 3.64517C16.5538 3.44931 16.2771 3.33385 15.9862 3.31828C15.9204 3.31484 15.8564 3.29557 15.7996 3.26211C15.7428 3.22866 15.6949 3.182 15.66 3.12609C15.5227 2.90436 15.331 2.72144 15.1031 2.59475C14.8751 2.46806 14.6186 2.40183 14.3578 2.40234C14.1785 2.40214 14.0007 2.43388 13.8325 2.49609C13.7709 2.51898 13.7046 2.52667 13.6393 2.51851C13.574 2.51035 13.5117 2.48658 13.4575 2.44922C12.9458 2.09544 12.334 1.91523 11.7121 1.9351C11.0903 1.95497 10.4912 2.17387 10.0031 2.55961C9.94668 2.60424 9.87955 2.6333 9.8084 2.64387C9.73725 2.65444 9.66457 2.64615 9.59762 2.61984C9.46343 2.56617 9.32027 2.53849 9.17575 2.53828C8.90422 2.53832 8.64122 2.63305 8.43202 2.80614C8.22282 2.97923 8.08053 3.21985 8.02965 3.48656C8.0153 3.56183 7.98017 3.63158 7.92823 3.68792C7.87628 3.74425 7.80961 3.78492 7.73574 3.80531C7.41687 3.89429 7.13519 4.08374 6.93253 4.34551C6.72986 4.60729 6.61702 4.92744 6.61074 5.25844H12.4078C12.5167 5.2585 12.6211 5.30178 12.6981 5.37878C12.7751 5.45577 12.8183 5.56018 12.8184 5.66906V8.74992C12.8184 8.82762 12.8493 8.90214 12.9042 8.95709C12.9592 9.01203 13.0337 9.04289 13.1114 9.04289C13.1891 9.04289 13.2636 9.01203 13.3185 8.95709C13.3735 8.90214 13.4043 8.82762 13.4043 8.74992V8.30086C13.4043 8.15466 13.4331 8.0099 13.4891 7.87483C13.545 7.73976 13.627 7.61703 13.7304 7.51365C13.8338 7.41027 13.9565 7.32827 14.0916 7.27232C14.2267 7.21638 14.3714 7.18758 14.5176 7.18758C14.6638 7.18758 14.8086 7.21638 14.9437 7.27232C15.0787 7.32827 15.2015 7.41027 15.3048 7.51365C15.4082 7.61703 15.4902 7.73976 15.5462 7.87483C15.6021 8.0099 15.6309 8.15466 15.6309 8.30086V9.35555C15.6309 9.43325 15.6618 9.50777 15.7167 9.56271C15.7717 9.61765 15.8462 9.64852 15.9239 9.64852C16.0016 9.64852 16.0761 9.61765 16.131 9.56271C16.186 9.50777 16.2168 9.43325 16.2168 9.35555V5.68172C16.2155 5.62387 16.226 5.56634 16.2478 5.51273C16.2788 5.43782 16.3314 5.37379 16.3988 5.3287C16.4662 5.28361 16.5454 5.25949 16.6265 5.25938ZM17.0372 6.66563H18.7247C18.7279 6.4711 18.7319 6.27891 18.7336 6.07969H17.0372V6.66563ZM17.3925 26.7774H7.42426V27.7735C7.42432 27.8511 7.45521 27.9256 7.51014 27.9805C7.56507 28.0355 7.63955 28.0664 7.71723 28.0664H17.0995C17.1772 28.0663 17.2516 28.0354 17.3065 27.9805C17.3614 27.9256 17.3923 27.8511 17.3925 27.7735V26.7774ZM20.0751 19.2539V17.5547C20.0751 17.4459 20.0319 17.3416 19.955 17.2647C19.8781 17.1878 19.7737 17.1445 19.665 17.1445C19.5562 17.1445 19.4519 17.1878 19.3749 17.2647C19.298 17.3416 19.2548 17.4459 19.2548 17.5547V19.2539H17.5547C17.4459 19.2539 17.3415 19.2971 17.2646 19.374C17.1877 19.451 17.1445 19.5553 17.1445 19.6641C17.1445 19.7729 17.1877 19.8772 17.2646 19.9541C17.3415 20.031 17.4459 20.0742 17.5547 20.0742H19.2539V21.7734C19.2539 21.8822 19.2971 21.9866 19.374 22.0635C19.4509 22.1404 19.5552 22.1836 19.664 22.1836C19.7728 22.1836 19.8771 22.1404 19.9541 22.0635C20.031 21.9866 20.0742 21.8822 20.0742 21.7734V20.0742H21.7734C21.8822 20.0742 21.9865 20.031 22.0634 19.9541C22.1403 19.8772 22.1836 19.7729 22.1836 19.6641C22.1836 19.5553 22.1403 19.451 22.0634 19.374C21.9865 19.2971 21.8822 19.2539 21.7734 19.2539H20.0751Z" fill="black"/>
</svg>
