<svg width="30" height="30" viewBox="0 0 30 30" fill="none" xmlns="http://www.w3.org/2000/svg">
<path d="M16.1314 10.8219L13.9179 4.97215L13.852 4.87957C12.4209 2.87034 10.0956 1.67075 7.63189 1.67075C3.42363 1.6708 0 5.09444 0 9.3027C0 11.1985 0.70002 13.0163 1.97062 14.4207L14.532 28.3293L12.0769 14.3975L16.1314 10.8219Z" fill="white"/>
<path d="M22.3681 1.67081C19.9044 1.67081 17.5791 2.8704 16.148 4.87963L15.8759 5.26178L18.1735 11.3338L14.1464 15.1155L16.3106 27.3964L28.0289 14.4213C29.3 13.0163 30 11.1985 30 9.3027C30 5.09444 26.5764 1.67081 22.3681 1.67081V1.67081Z" fill="#F0F4EF"/>
</svg>
