<svg width="31" height="36" viewBox="0 0 31 36" fill="none" xmlns="http://www.w3.org/2000/svg">
<path fill-rule="evenodd" clip-rule="evenodd" d="M24.8715 22.2133C24.8715 23.0304 24.2088 23.6931 23.3933 23.6931C22.5761 23.6931 21.9151 23.0304 21.9151 22.2133C21.9151 21.3978 22.5761 20.7351 23.3933 20.7351C24.2088 20.7351 24.8715 21.3978 24.8715 22.2133ZM21.1029 17.7986H13.5957V32.1138H15.3446H18.1864H24.8233H27.6634H29.414V20.7417C29.414 19.1223 28.0886 17.7986 26.4709 17.7986H21.1029ZM17.7612 20.7351C18.5767 20.7351 19.2394 21.3978 19.2394 22.2133C19.2394 23.0304 18.5767 23.6931 17.7612 23.6931C16.944 23.6931 16.283 23.0304 16.283 22.2133C16.283 21.3978 16.944 20.7351 17.7612 20.7351Z" fill="#FFF3DA"/>
<path fill-rule="evenodd" clip-rule="evenodd" d="M13.5957 14.6678H0.585938V32.1138H2.12391H4.96406H9.21598H12.0578H13.5957V17.7986V14.6678ZM8.5582 20.6886C9.15445 20.3348 9.87697 20.1505 10.6725 20.1887C10.7688 21.2201 10.4815 22.1435 9.92842 22.8411C10.1676 22.8095 10.4167 22.7979 10.6725 22.8112C10.8735 24.9704 9.39194 26.6662 7.30254 26.7758C7.23943 26.7791 7.17633 26.7808 7.11486 26.7808H7.08996H7.0667C4.86604 26.7708 3.30311 25.0036 3.50906 22.8112C3.76482 22.7979 4.01397 22.8096 4.25315 22.8411C3.70008 22.1435 3.41273 21.22 3.50906 20.1887C4.30295 20.1505 5.02547 20.3348 5.62336 20.6886C5.52369 19.4661 6.01201 18.2139 7.0899 17.2788C8.16791 18.2139 8.65787 19.4662 8.5582 20.6886Z" fill="#9DA5BE"/>
<path fill-rule="evenodd" clip-rule="evenodd" d="M23.3932 20.7351C22.5761 20.7351 21.915 21.3978 21.915 22.2133C21.915 23.0305 22.5761 23.6932 23.3932 23.6932C24.2087 23.6932 24.8714 23.0305 24.8714 22.2133C24.8714 21.3978 24.2087 20.7351 23.3932 20.7351Z" fill="#B7EABC"/>
<path fill-rule="evenodd" clip-rule="evenodd" d="M17.7612 20.7351C16.944 20.7351 16.283 21.3978 16.283 22.2133C16.283 23.0305 16.944 23.6932 17.7612 23.6932C18.5767 23.6932 19.2394 23.0305 19.2394 22.2133C19.2394 21.3978 18.5767 20.7351 17.7612 20.7351Z" fill="#B7EABC"/>
<path fill-rule="evenodd" clip-rule="evenodd" d="M22.0314 14.9651C21.5199 14.9651 21.103 15.382 21.103 15.8935V17.7986H26.471V15.8935C26.471 15.3819 26.0525 14.9651 25.5426 14.9651H23.787H22.0314Z" fill="#B7EABC"/>
<path fill-rule="evenodd" clip-rule="evenodd" d="M13.5957 13.5235C13.5957 11.381 10.3437 10.3097 7.09002 10.3097C3.84293 10.3097 0.594258 11.3793 0.585938 13.5152V13.5235V14.6678H13.5957V13.5235Z" fill="#E7E9EF"/>
<path fill-rule="evenodd" clip-rule="evenodd" d="M7.09005 17.2788C6.01216 18.2139 5.52384 19.4662 5.62351 20.6886C6.29781 21.0872 6.81273 21.7018 7.09005 22.4508C7.36743 21.7018 7.8823 21.0872 8.55829 20.6886C8.6579 19.4662 8.16794 18.2139 7.09005 17.2788Z" fill="#FFDA8F"/>
<path fill-rule="evenodd" clip-rule="evenodd" d="M5.6234 20.6886C5.02545 20.3348 4.30299 20.1505 3.5091 20.1887C3.41277 21.2201 3.70012 22.1435 4.25318 22.8411C5.59685 23.0221 6.6465 23.8742 7.09 25.0733V22.4508C6.81262 21.7017 6.29775 21.0872 5.6234 20.6886Z" fill="#FFDA8F"/>
<path fill-rule="evenodd" clip-rule="evenodd" d="M8.55833 20.6886C7.88233 21.0872 7.36747 21.7017 7.09009 22.4508V25.0733C7.53353 23.8742 8.58487 23.0221 9.92854 22.8411C10.4816 22.1435 10.769 21.22 10.6726 20.1887C9.8771 20.1505 9.15464 20.3348 8.55833 20.6886Z" fill="#FFDA8F"/>
<path fill-rule="evenodd" clip-rule="evenodd" d="M9.92855 22.8411C8.58487 23.0221 7.53353 23.8742 7.09009 25.0733V26.7808H7.11499C7.17646 26.7808 7.23956 26.7791 7.30267 26.7758C9.39206 26.6661 10.8736 24.9704 10.6726 22.8112C10.4168 22.7979 10.1677 22.8096 9.92855 22.8411Z" fill="#FFDA8F"/>
<path fill-rule="evenodd" clip-rule="evenodd" d="M7.09008 25.0733C6.64664 23.8742 5.59694 23.0221 4.25326 22.8411C4.01408 22.8095 3.76494 22.7979 3.50918 22.8112C3.30322 25.0036 4.86615 26.7708 7.06682 26.7808H7.09008V25.0733Z" fill="#FFDA8F"/>
<path fill-rule="evenodd" clip-rule="evenodd" d="M4.96394 32.1139H2.12378V34.7281C2.12378 35.1052 2.43269 35.4141 2.8081 35.4141H4.27962C4.65667 35.4141 4.96394 35.1052 4.96394 34.7281V32.1139Z" fill="#E7E9EF"/>
<path fill-rule="evenodd" clip-rule="evenodd" d="M12.0576 32.1139H9.21582V34.7281C9.21582 35.1052 9.52473 35.4141 9.90178 35.4141H11.3717C11.7487 35.4141 12.0576 35.1052 12.0576 34.7281V32.1139Z" fill="#E7E9EF"/>
<path fill-rule="evenodd" clip-rule="evenodd" d="M18.1865 32.1139H15.3447V34.7281C15.3447 35.1052 15.6536 35.4141 16.0307 35.4141H17.5006C17.8776 35.4141 18.1865 35.1052 18.1865 34.7281V32.1139Z" fill="#E7E9EF"/>
<path fill-rule="evenodd" clip-rule="evenodd" d="M24.8235 32.1139V34.7281C24.8235 35.1052 25.1308 35.4141 25.5077 35.4141H26.9793C27.3564 35.4141 27.6636 35.1052 27.6636 34.7281V32.1139H24.8235Z" fill="#E7E9EF"/>
<path d="M17.7612 24.279C18.8993 24.279 19.8253 23.3524 19.8253 22.2132C19.8253 21.0751 18.8993 20.149 17.7612 20.149C16.623 20.149 15.697 21.0751 15.697 22.2132C15.697 23.3523 16.623 24.279 17.7612 24.279ZM17.7612 21.321C18.2532 21.321 18.6534 21.7212 18.6534 22.2133C18.6534 22.7062 18.2532 23.1072 17.7612 23.1072C17.2692 23.1072 16.8689 22.7062 16.8689 22.2133C16.8689 21.7212 17.2692 21.321 17.7612 21.321Z" fill="black"/>
<path d="M23.3932 20.1492C22.2551 20.1492 21.3291 21.0752 21.3291 22.2134C21.3291 23.3524 22.2551 24.2792 23.3932 24.2792C24.5314 24.2792 25.4574 23.3525 25.4574 22.2134C25.4574 21.0751 24.5314 20.1492 23.3932 20.1492ZM23.3932 23.1072C22.9012 23.1072 22.501 22.7062 22.501 22.2133C22.501 21.7213 22.9012 21.321 23.3932 21.321C23.8853 21.321 24.2855 21.7212 24.2855 22.2133C24.2855 22.7062 23.8853 23.1072 23.3932 23.1072Z" fill="black"/>
<path d="M23.7304 26.0437H16.283C15.9593 26.0437 15.697 26.3061 15.697 26.6296C15.697 26.9532 15.9593 27.2156 16.283 27.2156H23.7304C24.054 27.2156 24.3163 26.9532 24.3163 26.6296C24.3163 26.3061 24.054 26.0437 23.7304 26.0437Z" fill="black"/>
<path d="M23.7304 28.4287H16.283C15.9593 28.4287 15.697 28.6911 15.697 29.0146C15.697 29.3382 15.9593 29.6006 16.283 29.6006H23.7304C24.054 29.6006 24.3163 29.3382 24.3163 29.0146C24.3163 28.6911 24.054 28.4287 23.7304 28.4287Z" fill="black"/>
<path d="M7.47393 16.8362C7.25362 16.6451 6.92631 16.6451 6.70606 16.8362C5.78221 17.6377 5.20946 18.685 5.06257 19.8022C4.57049 19.647 4.03706 19.5768 3.481 19.6035C3.18956 19.6175 2.95284 19.8438 2.92571 20.1343C2.85481 20.8935 2.96895 21.6304 3.24938 22.2866C3.07219 22.3744 2.94528 22.5488 2.92577 22.7565C2.8094 23.9953 3.17977 25.1569 3.96868 26.0272C4.62528 26.7517 5.51128 27.2023 6.50409 27.3289V28.2673C6.50409 28.5909 6.76641 28.8533 7.09003 28.8533C7.41364 28.8533 7.67596 28.5909 7.67596 28.2673V27.3289C8.70715 27.1965 9.62262 26.7172 10.2806 25.9561C11.0218 25.0985 11.3682 23.9625 11.256 22.757C11.2366 22.5491 11.1096 22.3746 10.9323 22.2866C11.2127 21.6304 11.3269 20.8935 11.2559 20.1343C11.2288 19.8438 10.9921 19.6176 10.7006 19.6035C10.1445 19.5768 9.61102 19.647 9.11889 19.8024C8.97176 18.6856 8.39848 17.6382 7.47393 16.8362ZM6.50403 26.1439C5.84924 26.0287 5.2701 25.7181 4.83692 25.2402C4.38704 24.7438 4.1277 24.1084 4.08358 23.4124C5.18585 23.5331 6.09762 24.1893 6.50409 25.1833V26.1439H6.50403ZM6.50403 23.2237C5.96977 22.7622 5.31288 22.4446 4.58544 22.3034C4.29094 21.8665 4.11926 21.3465 4.08387 20.7903C5.18784 20.9122 6.0988 21.5704 6.50403 22.5653V23.2237ZM7.09049 21.2319C6.83942 20.8947 6.53825 20.6027 6.19788 20.3625C6.20221 19.5461 6.5161 18.7527 7.09003 18.1017C7.66477 18.7531 7.97924 19.5466 7.98376 20.3626C7.64327 20.6027 7.34192 20.8947 7.09049 21.2319ZM9.39393 25.1896C8.95864 25.6933 8.35852 26.0237 7.67596 26.144V25.1836C8.08372 24.1894 8.9959 23.5333 10.098 23.4124C10.0556 24.0869 9.8134 24.7043 9.39393 25.1896ZM9.59631 22.3033C8.86834 22.4447 8.21081 22.7629 7.67596 23.2251V22.561C8.08325 21.5681 8.99538 20.9121 10.0978 20.7904C10.0624 21.3465 9.89075 21.8664 9.59631 22.3033Z" fill="black"/>
<path d="M27.0569 17.2623V15.8936C27.0569 15.0586 26.3776 14.3792 25.5425 14.3792H24.3729V7.63231C24.3729 6.73225 23.6406 6 22.7406 6H8.13633C7.23627 6 6.50402 6.73225 6.50402 7.63231V9.73535C4.94309 9.7943 3.49699 10.0874 2.38307 10.5766C0.413437 11.4416 0 12.6565 0 13.5234V32.1138C0 32.4374 0.262324 32.6998 0.585938 32.6998H1.53803V34.7281C1.53803 35.4294 2.10785 36 2.80822 36H4.2798C4.98023 36 5.55 35.4294 5.55 34.7281V32.6998H8.62998V34.7281C8.62998 35.4294 9.20057 36 9.90188 36H11.3718C12.0731 36 12.6437 35.4294 12.6437 34.7281V32.6998H13.5957H14.7587V34.7281C14.7587 35.4294 15.3293 36 16.0306 36H17.5005C18.2018 36 18.7724 35.4294 18.7724 34.7281V32.6998H24.2374V34.7281C24.2374 35.4294 24.8072 36 25.5077 36H26.9792C27.6796 36 28.2495 35.4294 28.2495 34.7281V32.6998H29.4141C29.7377 32.6998 30 32.4374 30 32.1138V20.7417C30 18.9955 28.7248 17.5423 27.0569 17.2623ZM25.5425 15.5511C25.7282 15.5511 25.885 15.7079 25.885 15.8936V17.2127H21.6889V15.8936C21.6889 15.7047 21.8425 15.5511 22.0314 15.5511H25.5425ZM4.37813 34.7281C4.37813 34.7824 4.33307 34.8281 4.2798 34.8281H2.80822C2.75584 34.8281 2.7099 34.7814 2.7099 34.7281V32.6998H4.37813V34.7281ZM11.4718 34.7281C11.4718 34.7814 11.425 34.8281 11.3718 34.8281H9.90188C9.84861 34.8281 9.80186 34.7814 9.80186 34.7281V32.6998H11.4718V34.7281ZM13.0098 14.082H9.71918C9.39557 14.082 9.13324 14.3443 9.13324 14.6679C9.13324 14.9915 9.39557 15.2538 9.71918 15.2538H13.0098V17.7987V31.528H1.17188V15.2538H4.45582C4.77943 15.2538 5.04176 14.9915 5.04176 14.6679C5.04176 14.3443 4.77943 14.082 4.45582 14.082H1.17188V13.5234C1.17188 11.8165 4.22145 10.8956 7.09084 10.8956C9.96023 10.8956 13.0098 11.8165 13.0098 13.5234V14.082ZM11.7986 10.5766C10.6843 10.0872 9.23754 9.79412 7.67596 9.7353V7.63231C7.67596 7.37842 7.8825 7.17188 8.13639 7.17188H22.7406C22.9945 7.17188 23.2011 7.37842 23.2011 7.63231V14.3791H22.0315C21.1965 14.3791 20.5171 15.0585 20.5171 15.8936V17.2127H14.1817V13.5234C14.1817 12.6565 13.7682 11.4416 11.7986 10.5766ZM17.6005 34.7281C17.6005 34.7814 17.5537 34.8281 17.5005 34.8281H16.0306C15.9773 34.8281 15.9306 34.7814 15.9306 34.7281V32.6998H17.6005V34.7281ZM27.0776 34.7281C27.0776 34.7824 27.0325 34.8281 26.9792 34.8281H25.5077C25.4544 34.8281 25.4093 34.7824 25.4093 34.7281V32.6998H27.0776V34.7281ZM28.8281 31.528H14.1817V18.3846H26.471C27.7707 18.3846 28.8281 19.442 28.8281 20.7417V31.528Z" fill="black"/>
<path d="M7.08838 15.2538H7.09002C7.41363 15.2538 7.67514 14.9914 7.67514 14.6678C7.67514 14.3443 7.41199 14.0819 7.08838 14.0819C6.76477 14.0819 6.50244 14.3443 6.50244 14.6678C6.50244 14.9914 6.76477 15.2538 7.08838 15.2538Z" fill="black"/>
<rect width="13" height="13" transform="translate(18)" fill="white"/>
<path d="M24.5 13C20.9158 13 18 10.0842 18 6.5C18 2.91576 20.9158 0 24.5 0C28.0842 0 31 2.91576 31 6.5C31 10.0842 28.0842 13 24.5 13ZM24.5 0.8125C21.3638 0.8125 18.8125 3.36376 18.8125 6.5C18.8125 9.63624 21.3638 12.1875 24.5 12.1875C27.6362 12.1875 30.1875 9.63624 30.1875 6.5C30.1875 3.36376 27.6362 0.8125 24.5 0.8125Z" fill="black"/>
<path d="M27.3438 6.90625H21.6562C21.432 6.90625 21.25 6.72425 21.25 6.5C21.25 6.27575 21.432 6.09375 21.6562 6.09375H27.3438C27.568 6.09375 27.75 6.27575 27.75 6.5C27.75 6.72425 27.568 6.90625 27.3438 6.90625Z" fill="black"/>
<path d="M24.5 9.75C24.2757 9.75 24.0938 9.568 24.0938 9.34375V3.65625C24.0938 3.432 24.2757 3.25 24.5 3.25C24.7243 3.25 24.9062 3.432 24.9062 3.65625V9.34375C24.9062 9.568 24.7243 9.75 24.5 9.75Z" fill="black"/>
</svg>
