<svg width="30" height="30" viewBox="0 0 30 30" fill="none" xmlns="http://www.w3.org/2000/svg">
<g clip-path="url(#clip0)">
<path d="M29.9471 15.8789C29.7539 19.3416 28.3241 22.4707 26.1445 24.914C25.9511 25.125 24.0001 23.5956 23.789 23.789C23.578 24.0001 25.125 25.9511 24.914 26.1445C22.4707 28.3243 19.3416 29.7539 15.8789 29.9471C15.5802 29.9471 15.2987 28.1836 15 28.1836C14.7013 28.1836 14.4198 29.9471 14.1211 29.9471C10.6583 29.7539 7.52928 28.3241 5.08597 26.1445C4.87494 25.9511 6.42195 24.0001 6.21092 23.789C5.99989 23.578 4.0489 25.125 3.8555 24.914C1.67563 22.4707 0.246033 19.3416 0.0528564 15.8789C0.0528564 15.5802 1.81639 15.2987 1.81639 15C1.81639 14.7013 0.0528564 14.4198 0.0528564 14.1211C0.246033 10.6583 1.67586 7.52928 3.8555 5.08597C3.97841 4.92781 5.87698 6.54486 6.03514 6.3867C6.29881 6.12303 4.80467 4.10155 5.08597 3.8555C7.52928 1.67563 10.6583 0.246033 14.1211 0.0528564C14.4198 0.0528564 14.7013 1.7578 15 1.7578C15.2987 1.7578 15.5802 0.0528564 15.8789 0.0528564C19.3416 0.246033 22.4707 1.67586 24.914 3.8555C25.16 4.08392 23.6659 6.07016 23.8946 6.31644C24.0701 6.49222 25.9863 4.91019 26.1445 5.08597C28.3241 7.52928 29.7539 10.6583 29.9471 14.1211C29.9471 14.4198 28.1836 14.7013 28.1836 15C28.1836 15.2987 29.9471 15.5802 29.9471 15.8789Z" fill="#C6715A"/>
<path d="M29.9471 15.8789C29.754 19.3416 28.3241 22.4707 26.1445 24.914C25.9511 25.125 24.0001 23.5956 23.7891 23.789C23.578 24.0001 25.125 25.9511 24.914 26.1445C22.4707 28.3243 19.3417 29.7539 15.8789 29.9471C15.5802 29.9471 15.2987 28.1836 15 28.1836V1.7578C15.2987 1.7578 15.5802 0.0528564 15.8789 0.0528564C19.3417 0.246033 22.4707 1.67586 24.914 3.8555C25.1601 4.08392 23.6659 6.07016 23.8946 6.31644C24.0701 6.49222 25.9863 4.91019 26.1445 5.08597C28.3241 7.52928 29.754 10.6583 29.9471 14.1211C29.9471 14.4198 28.1836 14.7013 28.1836 15C28.1836 15.2987 29.9471 15.5802 29.9471 15.8789Z" fill="#99503D"/>
<path d="M20.2734 25.0104C19.7878 25.0104 19.3945 24.6174 19.3945 24.1315V5.86853C19.3945 5.38261 19.7878 4.98962 20.2734 4.98962C20.7591 4.98962 21.1523 5.38261 21.1523 5.86853V24.1315C21.1523 24.6174 20.7591 25.0104 20.2734 25.0104Z" fill="#3C1B13"/>
<path d="M9.72656 25.0104C9.24088 25.0104 8.84766 24.6174 8.84766 24.1315V5.86853C8.84766 5.38261 9.24088 4.98962 9.72656 4.98962C10.2122 4.98962 10.6055 5.38261 10.6055 5.86853V24.1315C10.6055 24.6174 10.2122 25.0104 9.72656 25.0104Z" fill="#663325"/>
<path d="M29.9471 14.1211H26.3729C26.1974 11.6251 25.1953 9.35738 23.6659 7.58217L26.1445 5.08598C25.7579 4.64653 25.3535 4.24232 24.914 3.85551L22.4178 6.33408C20.6426 4.80469 18.3749 3.80264 15.8789 3.62709V0.0528717C15.5802 0.0352478 15.2987 0 15 0C14.7013 0 14.4198 0.0352478 14.1211 0.0528717V3.62709C11.6251 3.80264 9.35738 4.80469 7.58217 6.33408L5.08598 3.85551C4.64653 4.2421 4.24232 4.64653 3.85551 5.08598L6.33408 7.58194C4.80469 9.35738 3.80264 11.6251 3.62709 14.1211H0.0528717C0.0352478 14.4198 0 14.7013 0 15C0 15.2987 0.0352478 15.5802 0.0528717 15.8789H3.62709C3.80264 18.3749 4.80469 20.6426 6.33408 22.4178L3.85551 24.914C4.2421 25.3535 4.64653 25.7577 5.08598 26.1445L7.58194 23.6659C9.35738 25.1953 11.6249 26.1971 14.1211 26.3729V29.9471C14.4198 29.9648 14.7011 30 15 30C15.2987 30 15.58 29.9648 15.8789 29.9471V26.3729C18.3749 26.1974 20.6426 25.1953 22.4178 23.6659L24.914 26.1445C25.3535 25.7579 25.7577 25.3535 26.1445 24.914L23.6659 22.4178C25.1953 20.6426 26.1974 18.3749 26.3729 15.8789H29.9471C29.9648 15.5802 30 15.2987 30 15C30 14.7013 29.9648 14.4198 29.9471 14.1211ZM21.8378 21.8378C20.08 23.578 17.672 24.668 15 24.668C12.328 24.668 9.91997 23.578 8.16216 21.8378C6.42197 20.08 5.33203 17.672 5.33203 15C5.33203 12.328 6.42197 9.91997 8.16216 8.16216C9.91997 6.42197 12.328 5.33203 15 5.33203C17.672 5.33203 20.08 6.42197 21.8378 8.16216C23.578 9.91997 24.668 12.328 24.668 15C24.668 17.672 23.578 20.08 21.8378 21.8378Z" fill="#663325"/>
<path d="M30 15C30 15.2987 29.9648 15.5802 29.9471 15.8789H26.3729C26.1974 18.3749 25.1953 20.6426 23.6659 22.4178L26.1445 24.914C25.7579 25.3535 25.3535 25.7577 24.914 26.1445L22.4178 23.6659C20.6426 25.1953 18.3749 26.1974 15.8789 26.3729V29.9471C15.5802 29.9648 15.2987 30 15 30V24.668C17.672 24.668 20.08 23.578 21.8378 21.8378C23.578 20.08 24.668 17.672 24.668 15C24.668 12.328 23.578 9.91997 21.8378 8.16216C20.08 6.42197 17.672 5.33203 15 5.33203V0C15.2987 0 15.5802 0.0352478 15.8789 0.0528717V3.62709C18.3749 3.80264 20.6426 4.80469 22.4178 6.33408L24.914 3.85551C25.3535 4.2421 25.7577 4.64653 26.1445 5.08598L23.6659 7.58217C25.1953 9.35738 26.1974 11.6251 26.3729 14.1211H29.9471C29.9648 14.4198 30 14.7013 30 15Z" fill="#3C1B13"/>
<path d="M15 15.8789C13.5409 15.8789 12.3633 17.0565 12.3633 18.5156C12.3633 19.9747 13.5409 21.1523 15 21.1523C16.4591 21.1523 17.6367 19.9747 17.6367 18.5156C17.6367 17.0565 16.4591 15.8789 15 15.8789Z" fill="#663325"/>
<path d="M15 21.1523V15.8789C16.4591 15.8789 17.6367 17.0565 17.6367 18.5156C17.6367 19.9747 16.4591 21.1523 15 21.1523Z" fill="#3C1B13"/>
</g>
<defs>
<clipPath id="clip0">
<rect width="30" height="30" fill="white"/>
</clipPath>
</defs>
</svg>
