<svg id="Capa_1" enable-background="new 0 0 511.999 511.999" height="512" viewBox="0 0 511.999 511.999" width="512" xmlns="http://www.w3.org/2000/svg"><g><path d="m329.308 50.75h-146.622v-27.213c0-12.998 10.537-23.536 23.536-23.536h99.55c12.998 0 23.536 10.537 23.536 23.536z" fill="#537983"/><path d="m329.306 23.539v27.21h-24.37v-27.21c0-13-10.539-23.539-23.539-23.539h24.37c13 0 23.539 10.539 23.539 23.539z" fill="#426970"/><path d="m422.678 87.128h-333.362v-25.152c0-8.749 7.092-15.841 15.841-15.841h301.682c8.749 0 15.841 7.092 15.841 15.841v25.152z" fill="#7ca1b1"/><path d="m422.673 61.975v25.159h-27.346v-25.159c0-8.751-7.089-15.84-15.84-15.84h27.346c8.751 0 15.84 7.089 15.84 15.84z" fill="#678d98"/><path d="m255.997 145.872h-181.474l34.513 326.562c2.377 22.493 21.347 39.564 43.965 39.564h102.996 102.996c22.618 0 41.588-17.071 43.965-39.564l34.513-326.562z" fill="#7ca1b1"/><path d="m437.472 145.873-34.509 326.558c-2.377 22.498-21.351 39.568-43.975 39.568h-29.997c22.624 0 41.587-17.07 43.965-39.568l34.52-326.558z" fill="#678d98"/><path d="m445.851 148.251h-379.709c-5.006 0-9.065-4.058-9.065-9.065v-45.372c0-5.006 4.058-9.065 9.065-9.065h379.709c5.006 0 9.065 4.058 9.065 9.065v45.372c0 5.006-4.058 9.065-9.065 9.065z" fill="#537983"/><path d="m454.921 93.811v45.374c0 5.007-4.06 9.067-9.066 9.067h-26.105c5.007 0 9.066-4.06 9.066-9.067v-45.374c0-5.007-4.06-9.056-9.066-9.056h26.105c5.006 0 9.066 4.049 9.066 9.056z" fill="#426970"/><g><g><g><path d="m182.678 472.456c-3.877 0-7.162-2.985-7.469-6.917l-21.25-272.041c-.323-4.129 2.763-7.739 6.893-8.061 4.133-.317 7.738 2.764 8.061 6.893l21.25 272.041c.323 4.129-2.763 7.739-6.893 8.061-.198.016-.396.024-.592.024z" fill="#426970"/></g><g><path d="m329.316 472.456c-.195 0-.393-.008-.592-.023-4.13-.322-7.216-3.932-6.894-8.061l21.25-272.041c.323-4.129 3.901-7.22 8.062-6.893 4.13.322 7.216 3.932 6.894 8.061l-21.25 272.041c-.308 3.93-3.593 6.916-7.47 6.916z" fill="#426970"/></g></g><g><path d="m255.997 472.455c-4.142 0-7.5-3.358-7.5-7.5v-272.041c0-4.142 3.358-7.5 7.5-7.5s7.5 3.358 7.5 7.5v272.041c0 4.142-3.358 7.5-7.5 7.5z" fill="#426970"/></g></g></g></svg>