<svg width="14" height="14" viewBox="0 0 14 14" fill="none" xmlns="http://www.w3.org/2000/svg">
<g opacity="0.3" clip-path="url(#clip0)">
<path d="M8.93114 5.07222C8.75004 5.07222 8.60327 5.21899 8.60327 5.40009V11.5968C8.60327 11.7778 8.75004 11.9247 8.93114 11.9247C9.11224 11.9247 9.25901 11.7778 9.25901 11.5968V5.40009C9.25901 5.21899 9.11224 5.07222 8.93114 5.07222Z" fill="#2E2C2D"/>
<path d="M5.06224 5.07222C4.88115 5.07222 4.73438 5.21899 4.73438 5.40009V11.5968C4.73438 11.7778 4.88115 11.9247 5.06224 11.9247C5.24334 11.9247 5.39011 11.7778 5.39011 11.5968V5.40009C5.39011 5.21899 5.24334 5.07222 5.06224 5.07222Z" fill="#2E2C2D"/>
<path d="M2.2426 4.16789V12.2459C2.2426 12.7233 2.41768 13.1717 2.72352 13.4934C3.02795 13.816 3.45161 13.9992 3.895 14H10.0984C10.5419 13.9992 10.9656 13.816 11.2699 13.4934C11.5757 13.1717 11.7508 12.7233 11.7508 12.2459V4.16789C12.3587 4.00652 12.7527 3.41917 12.6714 2.79533C12.5899 2.17161 12.0585 1.70504 11.4294 1.70491H9.75078V1.29508C9.7527 0.95043 9.61643 0.619488 9.37245 0.376021C9.12847 0.132681 8.79701 -0.00282031 8.45237 -2.6972e-06H5.541C5.19636 -0.00282031 4.8649 0.132681 4.62092 0.376021C4.37694 0.619488 4.24067 0.95043 4.24259 1.29508V1.70491H2.56394C1.93484 1.70504 1.40346 2.17161 1.32201 2.79533C1.24068 3.41917 1.63464 4.00652 2.2426 4.16789V4.16789ZM10.0984 13.3442H3.895C3.33443 13.3442 2.89834 12.8627 2.89834 12.2459V4.19671H11.095V12.2459C11.095 12.8627 10.6589 13.3442 10.0984 13.3442ZM4.89833 1.29508C4.89615 1.12435 4.96326 0.960036 5.08442 0.839519C5.20545 0.719002 5.37015 0.652788 5.541 0.655733H8.45237C8.62322 0.652788 8.78792 0.719002 8.90895 0.839519C9.03011 0.959908 9.09722 1.12435 9.09504 1.29508V1.70491H4.89833V1.29508ZM2.56394 2.36065H11.4294C11.7554 2.36065 12.0196 2.62486 12.0196 2.95081C12.0196 3.27676 11.7554 3.54097 11.4294 3.54097H2.56394C2.23799 3.54097 1.97377 3.27676 1.97377 2.95081C1.97377 2.62486 2.23799 2.36065 2.56394 2.36065V2.36065Z" fill="#2E2C2D"/>
<path d="M6.99669 5.07222C6.8156 5.07222 6.66882 5.21899 6.66882 5.40009V11.5968C6.66882 11.7778 6.8156 11.9247 6.99669 11.9247C7.17779 11.9247 7.32456 11.7778 7.32456 11.5968V5.40009C7.32456 5.21899 7.17779 5.07222 6.99669 5.07222Z" fill="#2E2C2D"/>
</g>
<defs>
<clipPath id="clip0">
<rect width="14" height="14" fill="white"/>
</clipPath>
</defs>
</svg>
