<svg width="30" height="30" viewBox="0 0 30 30" fill="none" xmlns="http://www.w3.org/2000/svg">
<g clip-path="url(#clip0)">
<path d="M17.8125 3.75H3.4375C1.5375 3.75 0 5.2875 0 7.1875V22.8125C0 24.7125 1.5375 26.25 3.4375 26.25H12.6625L12.9375 24.7125C13.0638 24.0125 13.3875 23.3875 13.8888 22.875L15.5138 21.25H4.6875C4.175 21.25 3.75 20.825 3.75 20.3125C3.75 19.8 4.175 19.375 4.6875 19.375H16.5625C16.7875 19.375 17 19.4625 17.1625 19.6L21.25 15.525V7.1875C21.25 5.2875 19.7125 3.75 17.8125 3.75ZM16.5625 17.1875H4.6875C4.175 17.1875 3.75 16.7625 3.75 16.25C3.75 15.7375 4.175 15.3125 4.6875 15.3125H16.5625C17.075 15.3125 17.5 15.7375 17.5 16.25C17.5 16.7625 17.075 17.1875 16.5625 17.1875ZM16.5625 13.125H4.6875C4.175 13.125 3.75 12.7 3.75 12.1875C3.75 11.675 4.175 11.25 4.6875 11.25H16.5625C17.075 11.25 17.5 11.675 17.5 12.1875C17.5 12.7 17.075 13.125 16.5625 13.125Z" fill="#3D3A3B"/>
<path d="M15.3125 2.5H13.9375C13.525 1.0625 12.2 0 10.625 0C9.05 0 7.725 1.0625 7.3125 2.5H5.9375C5.425 2.5 5 2.925 5 3.4375V5.9375C5 7.1375 5.9875 8.125 7.1875 8.125H14.0625C15.2625 8.125 16.25 7.1375 16.25 5.9375V3.4375C16.25 2.925 15.825 2.5 15.3125 2.5Z" fill="#464445"/>
<path d="M17.5 12.1875C17.5 12.7 17.075 13.125 16.5625 13.125H4.6875C4.175 13.125 3.75 12.7 3.75 12.1875C3.75 11.675 4.175 11.25 4.6875 11.25H16.5625C17.075 11.25 17.5 11.675 17.5 12.1875Z" fill="white"/>
<path d="M17.5 16.25C17.5 16.7625 17.075 17.1875 16.5625 17.1875H4.6875C4.175 17.1875 3.75 16.7625 3.75 16.25C3.75 15.7375 4.175 15.3125 4.6875 15.3125H16.5625C17.075 15.3125 17.5 15.7375 17.5 16.25Z" fill="white"/>
<path d="M17.1625 19.6L15.5125 21.25H4.6875C4.175 21.25 3.75 20.825 3.75 20.3125C3.75 19.8 4.175 19.375 4.6875 19.375H16.5625C16.7875 19.375 17 19.4625 17.1625 19.6Z" fill="white"/>
<path d="M5 3.75H3.4375C1.5375 3.75 0 5.2875 0 7.1875V22.8125C0 24.7125 1.5375 26.25 3.4375 26.25H10.625V21.25H4.6875C4.175 21.25 3.75 20.825 3.75 20.3125C3.75 19.8 4.175 19.375 4.6875 19.375H10.625V17.1875H4.6875C4.175 17.1875 3.75 16.7625 3.75 16.25C3.75 15.7375 4.175 15.3125 4.6875 15.3125H10.625V13.125H4.6875C4.175 13.125 3.75 12.7 3.75 12.1875C3.75 11.675 4.175 11.25 4.6875 11.25H10.625V8.125H7.1875C5.9875 8.125 5 7.1375 5 5.9375V3.75Z" fill="#141314"/>
<path d="M10.625 0C9.05 0 7.725 1.0625 7.3125 2.5H5.9375C5.425 2.5 5 2.925 5 3.4375V3.75V5.9375C5 7.1375 5.9875 8.125 7.1875 8.125H10.625V0Z" fill="#2E2C2D"/>
<path d="M10.625 11.25H4.6875C4.175 11.25 3.75 11.675 3.75 12.1875C3.75 12.7 4.175 13.125 4.6875 13.125H10.625V11.25Z" fill="#DEDEDE"/>
<path d="M10.625 15.3125H4.6875C4.175 15.3125 3.75 15.7375 3.75 16.25C3.75 16.7625 4.175 17.1875 4.6875 17.1875H10.625V15.3125Z" fill="#DEDEDE"/>
<path d="M10.625 19.375H4.6875C4.175 19.375 3.75 19.8 3.75 20.3125C3.75 20.825 4.175 21.25 4.6875 21.25H10.625V19.375Z" fill="#DEDEDE"/>
<path d="M15.6587 30.0001C15.4124 30.0001 15.1724 29.9026 14.9962 29.7251C14.7799 29.5088 14.6824 29.2013 14.7362 28.8988L15.3987 25.1426C15.4312 24.9538 15.5237 24.7788 15.6587 24.6438L24.9399 15.3625C26.0799 14.2213 27.1999 14.5288 27.8124 15.1413L29.3587 16.6876C30.2124 17.5413 30.2124 18.9276 29.3587 19.7813L20.0774 29.0626C19.9424 29.1988 19.7674 29.2901 19.5774 29.3238L15.8212 29.9851L15.6587 30.0001ZM19.4149 28.4001H19.4274H19.4149Z" fill="#6FBF5F"/>
<path d="M26.5374 14.5938C26.0474 14.5938 25.4962 14.8062 24.9399 15.3625L15.6587 24.6438C15.5237 24.7788 15.4312 24.9538 15.3987 25.1425L14.7362 28.8988C14.6824 29.2013 14.7799 29.5088 14.9962 29.725C15.0062 29.735 15.0149 29.7438 15.0249 29.7525L28.7237 16.0525L27.8112 15.14C27.4987 14.8275 27.0512 14.5938 26.5374 14.5938Z" fill="#53A653"/>
</g>
<defs>
<clipPath id="clip0">
<rect width="30" height="30" fill="white"/>
</clipPath>
</defs>
</svg>
