<svg id="Capa_1" enable-background="new 0 0 512 512" height="512" viewBox="0 0 512 512" width="512" xmlns="http://www.w3.org/2000/svg"><g><path d="m286 0c-11.567 0-22.02 4.508-30 11.704-9.139 8.243-15 20.048-15 33.296v30c0 8.291 6.709 15 15 15s15-6.709 15-15v-30c0-8.276 6.724-15 15-15 8.291 0 15-6.709 15-15s-6.709-15-15-15z" fill="#6fbf5f"/><path d="m271 75v-30c0-8.276 6.724-15 15-15 8.291 0 15-6.709 15-15s-6.709-15-15-15c-11.567 0-22.02 4.508-30 11.704v78.296c8.291 0 15-6.709 15-15z" fill="#53a653"/><path d="m297.283 331h-41.283-41.429c-57.226 109.241-4.254 150.046 22.02 169.662 3.545 2.651 6.724 4.966 9.053 7.192 2.9 2.769 6.621 4.146 10.356 4.146s7.456-1.377 10.356-4.146c2.329-2.227 5.508-4.541 9.053-7.178 26.247-19.604 79.226-60.505 21.874-169.676z" fill="#6fbf5f"/><path d="m275.409 500.677c26.246-19.605 79.226-60.506 21.874-169.677h-41.283v181c3.735 0 7.456-1.377 10.356-4.146 2.33-2.226 5.508-4.541 9.053-7.177z" fill="#53a653"/><path d="m354.115 258.725-133.667 94.922c31.954 42.068 87.439 97.353 140.567 97.353 6.621 0 12.686-4.409 14.473-11.118 14.695-54.395 23.171-82.13-21.373-181.157z" fill="#91d96c"/><path d="m158.998 255.194c-46.919 106.406-36.061 127.165-22.485 184.688 1.75 6.55 7.696 11.118 14.487 11.118 69.166 0 130.182-79.25 165.938-138.018z" fill="#b5f279"/><path d="m300.15 245.57-44.15.022-44.033.022c-18.56 15.103-28.418 33.75-29.297 55.444-1.934 48.354 43.389 97.075 62.974 115.781 2.886 2.769 6.621 4.16 10.356 4.16s7.471-1.392 10.356-4.16c19.57-18.691 64.863-67.383 62.988-115.737-.849-21.708-10.663-40.4-29.194-55.532z" fill="#91d96c"/><path d="m329.345 301.103c-.85-21.709-10.664-40.4-29.194-55.532l-44.151.021v175.408c3.735 0 7.471-1.392 10.356-4.16 19.571-18.692 64.864-67.383 62.989-115.737z" fill="#6fbf5f"/><path d="m162.587 127.588c-99.595 91.318-76.685 201.361-71.074 222.294 1.787 6.694 7.851 11.118 14.472 11.118 66.674 0 155.85-64.622 155.391-179.985z" fill="#6fbf5f"/><path d="m366.669 144.331-113.687 68.998c11.093 89.564 92.782 147.671 153.033 147.671 6.621 0 12.671-4.409 14.473-11.118 4.994-18.604 25.868-116.957-53.819-205.551z" fill="#53a653"/><path d="m256 60c-129.39 0-195 66.61-195 196 0 8.291 6.709 15 15 15 52.939 0 118.184-39.404 141.489-65.171l38.511 1.652 41.777 1.791c24.185 23.979 85.62 61.728 138.223 61.728 8.291 0 15-6.709 15-15 0-129.39-65.61-196-195-196z" fill="#91d96c"/><path d="m436 271c8.291 0 15-6.709 15-15 0-129.39-65.61-196-195-196v147.481l41.777 1.791c24.185 23.979 85.62 61.728 138.223 61.728z" fill="#6fbf5f"/><path d="m256 60c-61.406 0-90 34.369-90 106 0 82.544 78.926 130.84 82.28 132.861 2.373 1.421 5.054 2.139 7.72 2.139s5.347-.718 7.72-2.139c3.354-2.021 82.28-50.317 82.28-132.861 0-71.631-28.594-106-90-106z" fill="#b5f279"/><path d="m346 166c0-71.631-28.594-106-90-106v241c2.666 0 5.347-.718 7.72-2.139 3.354-2.021 82.28-50.317 82.28-132.861z" fill="#91d96c"/></g></svg>