<svg width="31" height="40" viewBox="0 0 31 40" fill="none" xmlns="http://www.w3.org/2000/svg">
<g clip-path="url(#clip0)">
<path d="M17.8055 0C16.9128 0 16.1062 0.346769 15.4903 0.900308C14.7851 1.53438 14.3328 2.44246 14.3328 3.46154V5.76923C14.3328 6.407 14.8505 6.92308 15.4903 6.92308C16.1302 6.92308 16.6479 6.407 16.6479 5.76923V3.46154C16.6479 2.82492 17.1668 2.30769 17.8055 2.30769C18.4453 2.30769 18.963 1.79162 18.963 1.15385C18.963 0.516077 18.4453 0 17.8055 0Z" fill="#6FBF5F"/>
<path d="M16.6478 5.76923V3.46154C16.6478 2.82492 17.1667 2.30769 17.8054 2.30769C18.4452 2.30769 18.9629 1.79162 18.9629 1.15385C18.9629 0.516077 18.4452 0 17.8054 0C16.9127 0 16.1061 0.346769 15.4902 0.900308V6.92308C16.1301 6.92308 16.6478 6.407 16.6478 5.76923Z" fill="#53A653"/>
<path d="M18.6762 25.4615H15.4903H12.2932C7.87697 33.8647 11.9649 37.0035 13.9925 38.5124C14.2661 38.7164 14.5114 38.8944 14.6911 39.0657C14.9149 39.2787 15.2021 39.3846 15.4903 39.3846C15.7785 39.3846 16.0657 39.2787 16.2895 39.0657C16.4692 38.8944 16.7145 38.7164 16.9881 38.5135C19.0136 37.0055 23.1021 33.8593 18.6762 25.4615Z" fill="#6FBF5F"/>
<path d="M16.9881 38.5136C19.0135 37.0055 23.102 33.8593 18.6761 25.4615H15.4902V39.3846C15.7785 39.3846 16.0656 39.2787 16.2894 39.0657C16.4692 38.8944 16.7145 38.7164 16.9881 38.5136Z" fill="#53A653"/>
<path d="M23.0619 19.9019L12.7467 27.2036C15.2126 30.4396 19.4945 34.6923 23.5944 34.6923C24.1054 34.6923 24.5734 34.3531 24.7113 33.8371C25.8454 29.6528 26.4995 27.5194 23.0619 19.9019Z" fill="#91D96C"/>
<path d="M8.00445 19.6303C4.38366 27.8154 5.22158 29.4122 6.26926 33.8371C6.40431 34.3409 6.86317 34.6923 7.38724 34.6923C12.7249 34.6923 17.4335 28.5962 20.1929 24.0755L8.00445 19.6303Z" fill="#B5F279"/>
<path d="M18.8974 18.89L15.4903 18.8917L12.0922 18.8934C10.6599 20.0551 9.89912 21.4895 9.83129 23.1583C9.68204 26.8778 13.1797 30.6256 14.6911 32.0645C14.9138 32.2775 15.202 32.3845 15.4903 32.3845C15.7785 32.3845 16.0668 32.2774 16.2894 32.0645C17.7997 30.6268 21.295 26.8812 21.1503 23.1617C21.0848 21.4918 20.3274 20.054 18.8974 18.89Z" fill="#91D96C"/>
<path d="M21.1504 23.1618C21.0848 21.4918 20.3274 20.0541 18.8974 18.8901L15.4902 18.8917V32.3846C15.7785 32.3846 16.0668 32.2775 16.2894 32.0646C17.7997 30.6268 21.2951 26.8813 21.1504 23.1618Z" fill="#6FBF5F"/>
<path d="M8.28143 9.81447C0.595564 16.8389 2.36356 25.3038 2.79656 26.914C2.93447 27.4289 3.40243 27.7692 3.91338 27.7692C9.0587 27.7692 15.9405 22.7983 15.9051 13.9242L8.28143 9.81447Z" fill="#6FBF5F"/>
<path d="M24.0307 11.1024L15.2573 16.4099C16.1134 23.2995 22.4174 27.7692 27.0671 27.7692C27.578 27.7692 28.0449 27.4301 28.184 26.914C28.5694 25.4829 30.1802 17.9173 24.0307 11.1024Z" fill="#53A653"/>
<path d="M15.4903 4.61539C5.5051 4.61539 0.441895 9.73923 0.441895 19.6923C0.441895 20.3301 0.959636 20.8461 1.59946 20.8461C5.68483 20.8461 10.7199 17.8151 12.5183 15.833L15.4903 15.9601L18.7143 16.0978C20.5806 17.9424 25.3217 20.8461 29.3811 20.8461C30.0209 20.8461 30.5387 20.3301 30.5387 19.6923C30.5387 9.73923 25.4755 4.61539 15.4903 4.61539Z" fill="#91D96C"/>
<path d="M29.3811 20.8461C30.0209 20.8461 30.5386 20.3301 30.5386 19.6923C30.5386 9.73923 25.4754 4.61539 15.4902 4.61539V15.9601L18.7142 16.0978C20.5806 17.9424 25.3216 20.8461 29.3811 20.8461Z" fill="#6FBF5F"/>
<path d="M15.4903 4.61539C10.7516 4.61539 8.54492 7.25916 8.54492 12.7692C8.54492 19.1188 14.6357 22.8338 14.8946 22.9893C15.0777 23.0986 15.2846 23.1538 15.4903 23.1538C15.6961 23.1538 15.903 23.0986 16.0861 22.9893C16.3449 22.8338 22.4357 19.1188 22.4357 12.7692C22.4357 7.25916 20.2291 4.61539 15.4903 4.61539Z" fill="#B5F279"/>
<path d="M22.4356 12.7692C22.4356 7.25916 20.229 4.61539 15.4902 4.61539V23.1538C15.696 23.1538 15.9029 23.0986 16.086 22.9893C16.3448 22.8338 22.4356 19.1188 22.4356 12.7692Z" fill="#91D96C"/>
</g>
<defs>
<clipPath id="clip0">
<rect width="30.0968" height="39.3846" fill="white" transform="translate(0.441895)"/>
</clipPath>
</defs>
</svg>
