<svg width="16" height="20" viewBox="0 0 16 20" fill="none" xmlns="http://www.w3.org/2000/svg">
<path d="M7.31566 11.6743C7.40836 11.7298 7.51309 11.7578 7.61723 11.7578C7.72137 11.7578 7.82609 11.7298 7.91879 11.6743C8.04977 11.5953 11.1328 9.70875 11.1328 6.48438C11.1328 3.93035 10.1896 2.59539 8.20312 2.3866V1.75781C8.20312 1.43453 8.46578 1.17188 8.78906 1.17188C9.11293 1.17188 9.375 0.909805 9.375 0.585938C9.375 0.26207 9.11293 0 8.78906 0C7.81977 0 7.03125 0.788516 7.03125 1.75781V2.3866C5.04477 2.59547 4.10156 3.93035 4.10156 6.48438C4.10156 9.70875 7.18461 11.5953 7.31566 11.6743V11.6743Z" fill="#3CC226"/>
<path d="M7.62685 17.0269C6.90286 17.6211 6.22446 17.9818 5.56024 18.2391C6.11677 19.0798 6.92115 19.5595 7.21263 19.8381C7.43708 20.0524 7.79384 20.0556 8.02173 19.8381C8.31092 19.5616 9.12744 19.0751 9.68369 18.2251C8.99264 17.9525 8.32717 17.5929 7.62685 17.0269V17.0269Z" fill="#3CC226"/>
<path d="M2.5257 15.13C2.59765 15.9362 2.81109 16.6376 2.94976 17.1829C3.03253 17.4926 3.3505 17.6809 3.6673 17.5971C4.46046 17.3847 5.21066 17.1794 5.99847 16.726C5.45109 16.1571 4.82394 15.3901 4.34128 14.5125C3.78074 14.7562 3.18386 14.9693 2.5257 15.13Z" fill="#3CC226"/>
<path d="M12.2847 17.1829C12.4628 16.5101 12.6548 15.8648 12.7198 15.134C12.0587 14.9724 11.4575 14.7575 10.8936 14.5108C10.4137 15.3839 9.79047 16.1486 9.24524 16.717C9.98075 17.1379 10.7109 17.3676 11.5672 17.5972C11.8766 17.6806 12.2008 17.498 12.2847 17.1829Z" fill="#3CC226"/>
<path d="M7.61721 12.9297C7.37358 12.9297 7.1392 12.8642 6.91748 12.767C6.4733 13.2261 5.97271 13.6417 5.38904 13.991C5.95701 15.0042 6.76361 15.8542 7.21268 16.2828C7.32596 16.391 7.47131 16.4453 7.61721 16.4453C7.76311 16.4453 7.90846 16.391 8.02174 16.2828C8.47291 15.8519 9.28561 14.9962 9.85409 13.9763C9.27288 13.6259 8.74342 13.2334 8.30034 12.7738C8.08248 12.8666 7.8542 12.9297 7.61721 12.9297Z" fill="#3CC226"/>
<path d="M14.0424 13.6673C14.1156 13.3947 14.276 12.6893 14.2838 11.7315C13.0909 11.6535 11.8501 11.2172 10.7751 10.653C10.2744 11.2852 9.73994 11.7775 9.31201 12.1186C10.6512 13.4048 12.9658 14.1016 13.4771 14.1016C13.7357 14.1016 13.9721 13.9293 14.0424 13.6673Z" fill="#3CC226"/>
<path d="M4.46076 10.6547C3.3758 11.2227 2.13404 11.6537 0.951233 11.7311C0.960959 12.6753 1.11569 13.3827 1.1919 13.6673C1.2617 13.9287 1.49861 14.1016 1.75725 14.1016C2.46729 14.1016 4.55052 13.4208 5.91474 12.1121C5.48806 11.7713 4.95798 11.2821 4.46076 10.6547Z" fill="#3CC226"/>
<path d="M14.6485 10.5859C14.9724 10.5859 15.2344 10.3239 15.2344 10C15.2344 6.49231 13.9709 4.17497 11.526 3.09106C12.0029 3.87704 12.3047 4.99563 12.3047 6.48438C12.3047 7.73035 11.9382 8.79578 11.4351 9.67843C12.4336 10.1892 13.5854 10.5859 14.6485 10.5859Z" fill="#3CC226"/>
<path d="M0.585938 10.5859C1.62613 10.5859 2.78723 10.1961 3.80094 9.68086C3.29699 8.79765 2.92969 7.73148 2.92969 6.48438C2.92969 4.99563 3.23152 3.87704 3.70848 3.09106C1.26359 4.17497 0 6.49231 0 10C0 10.3239 0.26207 10.5859 0.585938 10.5859V10.5859Z" fill="#3CC226"/>
</svg>
