<svg id="Layer_3" enable-background="new 0 0 64 64" height="512" viewBox="0 0 64 64" width="512" xmlns="http://www.w3.org/2000/svg"><g><path d="m43 13.462v42.538h-30v-42.536.001c.588.34 1.271.535 2 .535.38 0 .741-.07 1.089-.169.383 1.81 1.987 3.169 3.911 3.169.18 0 .352-.03.526-.053.685 1.219 1.976 2.053 3.474 2.053 1.202 0 2.267-.541 3-1.38.733.839 1.798 1.38 3 1.38.047 0 .091-.012.137-.014.144.564.408 1.074.763 1.514-.554.687-.9 1.549-.9 2.5 0 2.209 1.791 4 4 4s4-1.791 4-4c0-.951-.346-1.813-.901-2.5.555-.687.901-1.549.901-2.5 0-.498-.102-.969-.268-1.409 1.097-.531 1.921-1.536 2.18-2.76.347.099.708.169 1.088.169.729 0 1.413-.195 2.001-.536z" fill="#f2c351"/><path d="m43 62h-30c-1.657 0-3-1.343-3-3 0-1.657 1.343-3 3-3h30c1.657 0 3 1.343 3 3 0 1.657-1.343 3-3 3z" fill="#d5cec2"/><path d="m43 43h5c1.105 0 2-.895 2-2v-17c0-1.105-.895-2-2-2h-5v-4h5c3.314 0 6 2.686 6 6v17c0 3.314-2.686 6-6 6h-5z" fill="#d5cec2"/><path d="m41.707 6.071c-.603-.558-1.377-.922-2.236-1.024-.686-1.216-1.975-2.047-3.471-2.047-.692 0-1.333.192-1.9.501-.733-.908-1.842-1.501-3.1-1.501-.732 0-1.41.211-2 .555-.59-.344-1.268-.555-2-.555-.951 0-1.813.346-2.5.901-.687-.555-1.549-.901-2.5-.901-1.498 0-2.789.834-3.474 2.053-.174-.023-.346-.053-.526-.053-1.496 0-2.785.831-3.471 2.047-1.984.236-3.529 1.905-3.529 3.953 0 2.209 1.791 4 4 4 .38 0 .741-.07 1.089-.169.383 1.81 1.987 3.169 3.911 3.169.18 0 .352-.03.526-.053.685 1.219 1.976 2.053 3.474 2.053 1.202 0 2.267-.541 3-1.38.733.839 1.798 1.38 3 1.38.047 0 .091-.012.137-.014.144.564.408 1.074.763 1.514-.554.687-.9 1.549-.9 2.5 0 2.209 1.791 4 4 4s4-1.791 4-4c0-.951-.346-1.813-.901-2.5.555-.687.901-1.549.901-2.5 0-.498-.102-.969-.268-1.409 1.097-.531 1.921-1.536 2.18-2.76.347.099.708.169 1.088.169 2.209 0 4-1.791 4-4 0-1.967-1.422-3.594-3.293-3.929z" fill="#e7e4dd"/><g fill="#f7d881"><path d="m19 52c-1.105 0-2-.895-2-2v-18c0-1.105.895-2 2-2 1.105 0 2 .895 2 2v18c0 1.105-.895 2-2 2z"/><path d="m28 52c-1.105 0-2-.895-2-2v-18c0-1.105.895-2 2-2 1.105 0 2 .895 2 2v18c0 1.105-.895 2-2 2z"/><path d="m37 52c-1.105 0-2-.895-2-2v-18c0-1.105.895-2 2-2 1.105 0 2 .895 2 2v18c0 1.105-.895 2-2 2z"/></g></g></svg>