<svg width="30" height="41" viewBox="0 0 30 41" fill="none" xmlns="http://www.w3.org/2000/svg">
<g opacity="0.5">
<path d="M22.5 7.815V36.8182H2.04547V7.81637V7.81705C2.44638 8.04887 2.91206 8.18182 3.40911 8.18182C3.6682 8.18182 3.91434 8.13409 4.15161 8.06659C4.41274 9.30068 5.50638 10.2273 6.8182 10.2273C6.94093 10.2273 7.0582 10.2068 7.17683 10.1911C7.64388 11.0223 8.52411 11.5909 9.54547 11.5909C10.365 11.5909 11.0912 11.222 11.5909 10.65C12.0907 11.222 12.8168 11.5909 13.6364 11.5909C13.6684 11.5909 13.6984 11.5827 13.7298 11.5814C13.828 11.9659 14.008 12.3136 14.25 12.6136C13.8723 13.082 13.6364 13.6698 13.6364 14.3182C13.6364 15.8243 14.8575 17.0455 16.3637 17.0455C17.8698 17.0455 19.0909 15.8243 19.0909 14.3182C19.0909 13.6698 18.855 13.082 18.4766 12.6136C18.855 12.1452 19.0909 11.5575 19.0909 10.9091C19.0909 10.5695 19.0214 10.2484 18.9082 9.94841C19.6562 9.58637 20.218 8.90114 20.3946 8.06659C20.6312 8.13409 20.8773 8.18182 21.1364 8.18182C21.6334 8.18182 22.0998 8.04887 22.5007 7.81637L22.5 7.815Z" fill="#9A9698"/>
<path d="M22.5 40.9091H2.04545C0.915682 40.9091 0 39.9934 0 38.8636C0 37.7339 0.915682 36.8182 2.04545 36.8182H22.5C23.6298 36.8182 24.5455 37.7339 24.5455 38.8636C24.5455 39.9934 23.6298 40.9091 22.5 40.9091Z" fill="#DDD9D3"/>
<path d="M22.5 27.9545H25.9091C26.6625 27.9545 27.2727 27.3443 27.2727 26.5909V15C27.2727 14.2466 26.6625 13.6364 25.9091 13.6364H22.5V10.9091H25.9091C28.1686 10.9091 30 12.7405 30 15V26.5909C30 28.8505 28.1686 30.6818 25.9091 30.6818H22.5V27.9545Z" fill="#DDD9D3"/>
<path d="M21.6184 2.77568C21.2073 2.39523 20.6796 2.14705 20.0939 2.0775C19.6261 1.24841 18.7473 0.681818 17.7273 0.681818C17.2555 0.681818 16.8184 0.812727 16.4318 1.02341C15.932 0.404318 15.1759 0 14.3182 0C13.8191 0 13.3568 0.143864 12.9546 0.378409C12.5523 0.143864 12.09 0 11.5909 0C10.9425 0 10.3548 0.235909 9.88637 0.614318C9.41796 0.235909 8.83023 0 8.18182 0C7.16046 0 6.28023 0.568636 5.81319 1.39977C5.69455 1.38409 5.57728 1.36364 5.45455 1.36364C4.43455 1.36364 3.55569 1.93023 3.08796 2.75932C1.73523 2.92023 0.681824 4.05818 0.681824 5.45455C0.681824 6.96068 1.90296 8.18182 3.4091 8.18182C3.66819 8.18182 3.91432 8.13409 4.1516 8.06659C4.41273 9.30068 5.50637 10.2273 6.81819 10.2273C6.94091 10.2273 7.05819 10.2068 7.17682 10.1911C7.64387 11.0223 8.5241 11.5909 9.54546 11.5909C10.365 11.5909 11.0911 11.222 11.5909 10.65C12.0907 11.222 12.8168 11.5909 13.6364 11.5909C13.6684 11.5909 13.6984 11.5827 13.7298 11.5814C13.828 11.9659 14.008 12.3136 14.25 12.6136C13.8723 13.082 13.6364 13.6698 13.6364 14.3182C13.6364 15.8243 14.8575 17.0455 16.3636 17.0455C17.8698 17.0455 19.0909 15.8243 19.0909 14.3182C19.0909 13.6698 18.855 13.082 18.4766 12.6136C18.855 12.1452 19.0909 11.5575 19.0909 10.9091C19.0909 10.5695 19.0214 10.2484 18.9082 9.94841C19.6561 9.58636 20.218 8.90114 20.3946 8.06659C20.6311 8.13409 20.8773 8.18182 21.1364 8.18182C22.6425 8.18182 23.8636 6.96068 23.8636 5.45455C23.8636 4.11341 22.8941 3.00409 21.6184 2.77568Z" fill="#E7E4DD"/>
<path d="M6.13634 34.0909C5.38293 34.0909 4.77271 33.4807 4.77271 32.7273V20.4545C4.77271 19.7011 5.38293 19.0909 6.13634 19.0909C6.88975 19.0909 7.49998 19.7011 7.49998 20.4545V32.7273C7.49998 33.4807 6.88975 34.0909 6.13634 34.0909Z" fill="#C0B9BD"/>
<path d="M12.2728 34.0909C11.5193 34.0909 10.9091 33.4807 10.9091 32.7273V20.4545C10.9091 19.7011 11.5193 19.0909 12.2728 19.0909C13.0262 19.0909 13.6364 19.7011 13.6364 20.4545V32.7273C13.6364 33.4807 13.0262 34.0909 12.2728 34.0909Z" fill="#C0B9BD"/>
<path d="M18.4091 34.0909C17.6557 34.0909 17.0455 33.4807 17.0455 32.7273V20.4545C17.0455 19.7011 17.6557 19.0909 18.4091 19.0909C19.1625 19.0909 19.7727 19.7011 19.7727 20.4545V32.7273C19.7727 33.4807 19.1625 34.0909 18.4091 34.0909Z" fill="#C0B9BD"/>
</g>
</svg>
