<svg width="30" height="30" viewBox="0 0 30 30" fill="none" xmlns="http://www.w3.org/2000/svg">
<path d="M16.7578 26.4428C16.4344 26.4428 16.1719 26.7053 16.1719 27.0287C16.1719 27.3521 16.4344 27.6146 16.7578 27.6146C17.0812 27.6146 17.3438 27.3521 17.3438 27.0287C17.3438 26.7053 17.0812 26.4428 16.7578 26.4428Z" fill="#2E2C2D"/>
<path d="M8.52539 11.7357C8.20178 11.7357 7.93945 11.9981 7.93945 12.3217V23.5131C7.93945 23.8367 8.20178 24.099 8.52539 24.099C8.849 24.099 9.11133 23.8367 9.11133 23.5131V12.3217C9.11133 11.9981 8.849 11.7357 8.52539 11.7357Z" fill="#2E2C2D"/>
<path d="M13.2129 11.7357C12.8893 11.7357 12.627 11.9981 12.627 12.3217V23.5131C12.627 23.8367 12.8893 24.099 13.2129 24.099C13.5365 24.099 13.7988 23.8367 13.7988 23.5131V12.3217C13.7988 11.9981 13.5365 11.7357 13.2129 11.7357Z" fill="#2E2C2D"/>
<path d="M7.41211 30H19.1309C20.7463 30 22.0605 28.6857 22.0605 27.0703V25.3125H24.9902C26.6057 25.3125 27.9199 23.9982 27.9199 22.3828V12.3633C27.9199 10.7479 26.6057 9.43359 24.9902 9.43359H22.0605V7.66061C22.979 6.97207 23.4155 5.80828 23.1567 4.6592C22.9145 3.58166 22.025 2.70229 20.9437 2.47102C20.3688 2.34768 19.7899 2.39133 19.2623 2.59189C18.7334 1.75793 17.8044 1.23047 16.7871 1.23047C16.4037 1.23047 16.029 1.30482 15.6825 1.44791C14.7018 0.522773 13.4088 0 12.0703 0C10.2998 0 8.64867 0.901933 7.67402 2.37768C4.61133 2.20822 2.08008 4.63805 2.08008 7.63418V14.6654C2.08008 15.6347 2.88176 16.4232 3.86719 16.4232C4.08334 16.4232 4.29047 16.3839 4.48242 16.3123V27.0703C4.48242 28.6857 5.79668 30 7.41211 30ZM19.1309 28.8281H7.41211C6.64828 28.8281 5.99695 28.3382 5.75508 27.6562H14.4146C14.7383 27.6562 15.0006 27.3939 15.0006 27.0703C15.0006 26.7467 14.7383 26.4844 14.4146 26.4844H5.6543V14.6525V10.5179C6.97049 10.3192 8.1102 9.49031 8.70937 8.26178C8.8316 8.26178 8.9393 8.30408 9.02045 8.38371C9.68174 9.03398 10.5568 9.39205 11.4844 9.39205C12.4458 9.39205 13.3433 9.01148 14.0118 8.32008C14.0476 8.28305 14.0981 8.26178 14.1504 8.26178C15.0625 8.26178 15.6594 8.4566 15.9244 8.84074C16.1429 9.15744 16.1428 9.59748 16.1426 9.95109V12.3217C16.1426 13.0856 16.6325 13.7369 17.3145 13.9788V23.5131C17.3145 23.8368 17.5768 24.0991 17.9004 24.0991C18.224 24.0991 18.4863 23.8368 18.4863 23.5131V13.9787C19.1683 13.7368 19.6582 13.0856 19.6582 12.3217V8.19293C20.0687 8.27484 20.4875 8.27537 20.8887 8.19334V26.4844H19.101C18.7774 26.4844 18.515 26.7467 18.515 27.0703C18.515 27.3939 18.7774 27.6504 19.101 27.6504H20.7879C20.546 28.3324 19.8947 28.8281 19.1309 28.8281ZM22.0605 12.9492H24.4043V21.7969H22.0605V12.9492ZM24.9902 10.6055C25.9595 10.6055 26.748 11.394 26.748 12.3633V22.3828C26.748 23.3521 25.9595 24.1406 24.9902 24.1406H22.0605V22.9688H24.9902C25.3138 22.9688 25.5762 22.7064 25.5762 22.3828V12.3633C25.5762 12.0397 25.3138 11.7773 24.9902 11.7773H22.0605V10.6055H24.9902ZM3.86719 15.2514C3.53373 15.2514 3.25195 14.983 3.25195 14.6654V7.63418C3.25195 5.37269 5.10246 3.54129 7.37736 3.54129C7.55414 3.54129 7.73186 3.55254 7.90945 3.57533C8.14647 3.60574 8.37809 3.48914 8.49498 3.28084C9.22482 1.98 10.5948 1.17188 12.0703 1.17188C13.2264 1.17188 14.3409 1.67666 15.1281 2.55686C15.3189 2.77025 15.636 2.81455 15.8781 2.66145C16.146 2.49193 16.4604 2.40234 16.7871 2.40234C17.533 2.40234 18.1997 2.87467 18.4461 3.57756C18.506 3.74865 18.6418 3.88242 18.8139 3.93973C18.9858 3.99703 19.1747 3.97148 19.3253 3.87047C19.7247 3.6027 20.2121 3.51264 20.6981 3.61693C21.3309 3.75229 21.8718 4.28654 22.0133 4.91648C22.3468 6.3968 20.8294 7.61109 19.3379 6.85236C19.1562 6.75996 18.9397 6.76857 18.7659 6.87516C18.5921 6.98168 18.4863 7.17082 18.4863 7.37461V12.3217C18.4863 12.6448 18.2234 12.9076 17.9003 12.9076C17.5772 12.9076 17.3144 12.6448 17.3144 12.3217V9.95145C17.3146 9.48996 17.3149 8.79252 16.8889 8.17518C16.3921 7.455 15.4707 7.08984 14.1504 7.08984C13.7818 7.08984 13.4241 7.24154 13.169 7.5058C12.7236 7.96646 12.1253 8.22012 11.4844 8.22012C10.866 8.22012 10.2828 7.98147 9.8417 7.54764C9.54094 7.25238 9.13881 7.08984 8.70937 7.08984C8.26529 7.08984 7.85256 7.34748 7.65785 7.74621C7.16672 8.75191 6.1725 9.38256 5.06332 9.39205C4.7417 9.3948 4.48236 9.65631 4.48236 9.97799V14.6377C4.46174 14.9827 4.19344 15.2514 3.86719 15.2514Z" fill="#2E2C2D"/>
</svg>
