<svg width="15" height="15" viewBox="0 0 30 30" fill="none" xmlns="http://www.w3.org/2000/svg">
<path d="M29.2256 29.2262C29.725 28.7268 30 28.0628 30 27.3566C30 26.6504 29.725 25.9864 29.2256 25.487L9.89777 6.1592C9.55459 5.81596 8.99807 5.81602 8.65482 6.1592L6.15849 8.65547C5.99367 8.8203 5.90103 9.04383 5.90103 9.27692C5.90103 9.51001 5.99361 9.73354 6.15849 9.89837L25.4863 29.2262C26.0018 29.7417 26.6789 29.9994 27.356 29.9994C28.033 29.9994 28.7101 29.7417 29.2256 29.2262Z" fill="#565354"/>
<path d="M6.15851 8.65551C5.99369 8.82034 5.90105 9.04387 5.90105 9.27696C5.90105 9.51004 5.99363 9.73358 6.15851 9.8984L25.4864 29.2263C26.0018 29.7417 26.6789 29.9994 27.356 29.9994C28.033 29.9994 28.7101 29.7417 29.2256 29.2263L7.40668 7.40735L6.15851 8.65551Z" fill="#2E2C2D"/>
<path d="M11.4697 22.9401C5.13517 22.9401 0 17.805 0 11.4704C0 5.13584 5.13517 0.000671387 11.4697 0.000671387C17.8043 0.000671387 22.9395 5.13584 22.9395 11.4704C22.9395 17.805 17.8043 22.9401 11.4697 22.9401Z" fill="#565354"/>
<path d="M3.36323 3.36383C1.28631 5.44074 3.8147e-06 8.30815 3.8147e-06 11.4704C3.8147e-06 17.7948 5.1453 22.9401 11.4697 22.9401C14.6319 22.9401 17.4994 21.6538 19.5762 19.5769L3.36323 3.36383Z" fill="#2E2C2D"/>
<path d="M11.4697 19.4099C7.08489 19.4099 3.53027 15.8552 3.53027 11.4704C3.53027 7.08556 7.08489 3.53094 11.4697 3.53094C15.8546 3.53094 19.4092 7.08556 19.4092 11.4704C19.4092 15.8552 15.8546 19.4099 11.4697 19.4099Z" fill="#F0F4EF"/>
<path d="M11.4698 19.4099C13.6587 19.4099 15.6435 18.5195 17.0812 17.0818L5.85837 5.85901C4.42071 7.29667 3.53032 9.28153 3.53032 11.4704C3.53032 15.8482 7.09194 19.4099 11.4698 19.4099Z" fill="#DBDFDA"/>
</svg>
