<svg width="30" height="30" viewBox="0 0 30 30" fill="none" xmlns="http://www.w3.org/2000/svg">
<path d="M10.3987 14.322L9.49915 12.8113L19.5619 6.76517L20.4614 8.27578L10.3987 14.322Z" fill="#53A653"/>
<path d="M19.4692 23.5301L9.77295 18.5749L10.566 17.0058L20.2624 21.9611L19.4692 23.5301Z" fill="#53A653"/>
<path d="M23.7891 0C20.8886 0 18.5156 2.37299 18.5156 5.27344C18.5156 8.17377 20.8886 10.5469 23.7891 10.5469C26.6895 10.5469 29.0625 8.17377 29.0625 5.27344C29.0625 2.37299 26.6895 0 23.7891 0Z" fill="#6FBF5F"/>
<path d="M23.7891 19.4531C20.8886 19.4531 18.5156 21.8261 18.5156 24.7266C18.5156 27.6269 20.8886 30 23.7891 30C26.6895 30 29.0625 27.6269 29.0625 24.7266C29.0625 21.8261 26.6895 19.4531 23.7891 19.4531Z" fill="#6FBF5F"/>
<path d="M6.21094 10.6055C3.31049 10.6055 0.9375 12.9785 0.9375 15.8789C0.9375 18.7792 3.31049 21.1523 6.21094 21.1523C9.11139 21.1523 11.4844 18.7792 11.4844 15.8789C11.4844 12.9785 9.11139 10.6055 6.21094 10.6055Z" fill="#6FBF5F"/>
<path d="M29.0625 24.7266C29.0625 27.6269 26.6895 30 23.7891 30V19.4531C26.6895 19.4531 29.0625 21.8261 29.0625 24.7266Z" fill="#53A653"/>
<path d="M23.7891 10.5469V0C26.6895 0 29.0625 2.37299 29.0625 5.27344C29.0625 8.17377 26.6895 10.5469 23.7891 10.5469Z" fill="#53A653"/>
<path d="M11.4844 15.8789C11.4844 18.7792 9.11139 21.1523 6.21094 21.1523V10.6055C9.11139 10.6055 11.4844 12.9785 11.4844 15.8789Z" fill="#53A653"/>
</svg>
