<svg width="18" height="20" viewBox="0 0 18 20" fill="none" xmlns="http://www.w3.org/2000/svg">
<path d="M15.0697 17.438C16.3682 16.1447 17.1583 14.4638 17.1583 12.6208C17.1583 11.0209 16.5605 9.54425 15.5545 8.33557C15.637 8.07977 15.683 7.81495 15.683 7.54119C15.683 6.0229 14.3537 4.75429 12.2918 4.0628L13.4547 1.37425C13.6698 0.875682 13.4404 0.296801 12.9416 0.0810571C12.4435 -0.134686 11.8647 0.0951433 11.6488 0.593631L10.3413 3.61767C9.78024 3.54218 9.19311 3.49768 8.57968 3.49768C4.52939 3.49768 1.47554 5.23587 1.47554 7.54119C1.47554 7.81495 1.52164 8.07977 1.60415 8.33557C0.598112 9.54429 0 11.021 0 12.6208C0 14.4638 0.79091 16.1451 2.08945 17.4382L1.35824 18.4273C1.0356 18.864 1.12784 19.4797 1.56455 19.8028C1.73999 19.9328 1.94484 19.9956 2.14837 19.9956C2.44945 19.9956 2.74726 19.8576 2.94006 19.5966L3.64045 18.6485C5.0378 19.4969 6.73921 20 8.57972 20C10.42 20 12.1209 19.4969 13.5174 18.6489L14.2179 19.5966C14.4114 19.8576 14.7085 19.9956 15.01 19.9956C15.2131 19.9956 15.4179 19.9328 15.5941 19.803C16.0308 19.48 16.1236 18.8644 15.8009 18.4273L15.0697 17.438ZM8.57895 9.63575C5.37717 9.63575 3.44267 8.43222 3.44267 7.54119C3.44267 6.69463 5.44389 5.46489 8.57968 5.46489C8.90812 5.46489 9.22193 5.48118 9.52399 5.50612L9.02628 6.65788C8.89489 6.96194 8.9253 7.31173 9.10724 7.58855C9.28918 7.86538 9.59818 8.03204 9.92947 8.03204C10.3219 8.03204 10.6768 7.79887 10.8325 7.43871L11.508 5.8769C12.904 6.31047 13.716 7.00269 13.716 7.54119C13.716 8.48799 11.6847 9.63575 8.57895 9.63575Z" fill="#B1C226"/>
</svg>
