<svg width="31" height="30" viewBox="0 0 31 30" fill="none" xmlns="http://www.w3.org/2000/svg">
<g clip-path="url(#clip0)">
<path d="M22.2002 1.67033H22.1474C18.2661 1.67033 16.0962 4.50158 15.0906 6.41836C14.0673 4.50153 11.915 1.67033 8.03376 1.67033H7.96328C3.76436 1.70555 0.264908 5.27531 0.0532311 9.79477C-0.211468 15.3341 4.2231 19.0622 10.8564 24.6895C12.0032 25.6743 13.2206 26.7119 14.5084 27.8198L15.0906 28.3297L15.6729 27.8198C16.943 26.7119 18.178 25.6743 19.3248 24.6895C25.9581 19.0622 30.3923 15.3341 30.1276 9.79477C29.9158 5.27526 26.3991 1.70549 22.2002 1.67033Z" fill="#464445"/>
<path d="M30.1274 9.79477C30.3921 15.3341 25.958 19.0622 19.3246 24.6895C18.1778 25.6743 16.9429 26.7119 15.6727 27.8198L15.0905 28.3297V6.41836C16.0961 4.50153 18.266 1.67033 22.1473 1.67033H22.2001C26.399 1.70549 29.9157 5.27526 30.1274 9.79477Z" fill="#2E2C2D"/>
</g>
<defs>
<clipPath id="clip0">
<rect width="30.0968" height="30" fill="white" transform="translate(0.0419922)"/>
</clipPath>
</defs>
</svg>
