<svg width="30" height="30" viewBox="0 0 30 30" fill="none" xmlns="http://www.w3.org/2000/svg">
<g clip-path="url(#clip0)">
<path d="M22.087 1.67035H22.0343C18.1655 1.67035 16.0026 4.5016 15.0002 6.41838C13.9802 4.50154 11.8348 1.67035 7.96607 1.67035H7.89581C3.7104 1.70556 0.222199 5.27533 0.0112027 9.79478C-0.252645 15.3341 4.16767 19.0622 10.7797 24.6896C11.9228 25.6743 13.1362 26.7119 14.4199 27.8198L15.0002 28.3297L15.5806 27.8198C16.8467 26.7119 18.0777 25.6743 19.2208 24.6896C25.8328 19.0622 30.2527 15.3341 29.9889 9.79478C29.7777 5.27527 26.2723 1.70551 22.087 1.67035Z" fill="#FF3636"/>
<path d="M29.9888 9.79478C30.2526 15.3341 25.8327 19.0622 19.2207 24.6896C18.0776 25.6743 16.8466 26.7119 15.5805 27.8198L15.0001 28.3297V6.41838C16.0025 4.50154 18.1655 1.67035 22.0342 1.67035H22.0869C26.2723 1.70551 29.7777 5.27527 29.9888 9.79478Z" fill="#DB3838"/>
</g>
<defs>
<clipPath id="clip0">
<rect width="30" height="30" fill="white"/>
</clipPath>
</defs>
</svg>
