<svg width="31" height="30" viewBox="0 0 31 30" fill="none" xmlns="http://www.w3.org/2000/svg">
<path d="M25.138 0H6.24917C5.76216 0 5.36743 0.393574 5.36743 0.878907V29.1211C5.36743 29.4766 5.58222 29.797 5.91176 29.9331C6.0208 29.9782 6.13543 30 6.24894 30C6.47843 30 6.70392 29.9108 6.87256 29.7426L15.6937 20.9499L24.5145 29.7426C24.7666 29.9939 25.1458 30.069 25.4754 29.9331C25.8049 29.797 26.0198 29.4766 26.0198 29.1211V0.878907C26.0198 0.393574 25.625 0 25.138 0Z" fill="white"/>
<path d="M25.138 0H15.6935V20.9501L15.6937 20.9499L24.5145 29.7426C24.7666 29.9939 25.1458 30.069 25.4754 29.9331C25.8048 29.797 26.0197 29.4766 26.0197 29.1211V0.878907C26.0197 0.393574 25.625 0 25.138 0Z" fill="#F0F4EF"/>
</svg>
