<svg width="30" height="30" viewBox="0 0 30 30" fill="none" xmlns="http://www.w3.org/2000/svg">
<path d="M24.414 0H5.58594C5.10049 0 4.70703 0.393574 4.70703 0.878907V29.1211C4.70703 29.4766 4.92113 29.797 5.24961 29.9331C5.3583 29.9782 5.47256 30 5.5857 30C5.81445 30 6.03922 29.9108 6.20732 29.7426L15.0001 20.9499L23.7925 29.7426C24.0438 29.9939 24.4218 30.069 24.7504 29.9331C25.0787 29.797 25.2929 29.4766 25.2929 29.1211V0.878907C25.2929 0.393574 24.8994 0 24.414 0Z" fill="#3CC226"/>
<path d="M24.4141 0H14.9999V20.9501L15.0001 20.9499L23.7926 29.7426C24.0439 29.9939 24.4219 30.069 24.7504 29.9331C25.0788 29.7971 25.293 29.4766 25.293 29.1211V0.878907C25.293 0.393574 24.8995 0 24.4141 0Z" fill="#32A420"/>
</svg>
